<svg xmlns="http://www.w3.org/2000/svg" xmlns:xlink="http://www.w3.org/1999/xlink" width="500" zoomAndPan="magnify" viewBox="0 0 375 374.999991" height="500" preserveAspectRatio="xMidYMid meet" version="1.0"><defs><g/><clipPath id="74697f56b7"><path d="M 188 123.3125 L 230 123.3125 L 230 195 L 188 195 Z M 188 123.3125 " clip-rule="nonzero"/></clipPath><clipPath id="51a0b17dc2"><path d="M 201 123.3125 L 230 123.3125 L 230 171 L 201 171 Z M 201 123.3125 " clip-rule="nonzero"/></clipPath></defs><path fill="#0d62ad" d="M 174.863281 158.132812 C 171.6875 163.730469 170.695312 169.777344 172.332031 176.359375 C 176.183594 191.84375 193.421875 205.8125 208.96875 198.113281 C 217.546875 193.863281 220.941406 183.453125 215.046875 175.394531 C 211.8125 170.976562 206.644531 167.257812 200.988281 163.71875 C 193.714844 159.296875 183.117188 152.238281 184.210938 142.507812 C 180.007812 147.070312 177.148438 152.320312 180.476562 158.167969 C 183.03125 162.65625 187.828125 166.769531 193.890625 170.671875 C 196.492188 172.585938 199.015625 174.574219 200.847656 177.226562 C 206.011719 184.6875 200.085938 189.742188 192.503906 188.882812 C 184.988281 188.03125 181.324219 184.367188 179.683594 179.230469 C 182.609375 181.589844 185.632812 183.773438 189.199219 184.707031 C 195.070312 186.242188 196.632812 182.609375 194.945312 178.601562 C 194.050781 176.488281 192.40625 174.488281 190.410156 172.890625 C 184.21875 167.925781 180.398438 164.660156 174.863281 158.132812 " fill-opacity="1" fill-rule="evenodd"/><path fill="#034e8f" d="M 212.351562 195.910156 C 218.335938 190.902344 220.09375 182.289062 215.046875 175.394531 C 211.816406 170.976562 206.648438 167.257812 200.992188 163.71875 C 193.714844 159.296875 183.121094 152.238281 184.214844 142.507812 C 181.726562 149.65625 182.925781 154.507812 188.238281 159.605469 C 194.800781 165.902344 203.558594 170.492188 209.46875 177.28125 C 213.714844 182.160156 215.949219 188.023438 212.351562 195.910156 " fill-opacity="1" fill-rule="evenodd"/><path fill="#034e8f" d="M 195.574219 181.773438 C 195.636719 180.8125 195.417969 179.722656 194.941406 178.597656 C 194.050781 176.480469 192.402344 174.484375 190.410156 172.886719 C 184.214844 167.921875 180.394531 164.660156 174.859375 158.132812 C 180.378906 171.835938 191.246094 172.015625 195.574219 181.773438 " fill-opacity="1" fill-rule="evenodd"/><g clip-path="url(#74697f56b7)"><path fill="#0098da" d="M 201.089844 123.3125 C 194.019531 128.730469 185.25 136.179688 189.382812 144.953125 C 192.804688 152.214844 203.722656 158.972656 209.9375 163.996094 C 221.109375 173.023438 229.628906 180.246094 218.375 194.394531 C 227.628906 185.636719 231.40625 175.53125 222.5 165.007812 C 220.035156 162.097656 217.105469 159.382812 213.742188 156.839844 C 207.398438 152.042969 198.222656 146.714844 198.164062 137.742188 C 203.597656 146.089844 208.390625 148.246094 215.753906 153.589844 C 222.59375 158.550781 227.101562 164.289062 229.394531 170.761719 C 228.792969 163.347656 225.953125 156.675781 221.429688 150.566406 C 218.117188 146.09375 213.921875 141.949219 209.96875 137.667969 C 205.527344 132.851562 203.09375 129.835938 201.089844 123.3125 " fill-opacity="1" fill-rule="evenodd"/></g><g clip-path="url(#51a0b17dc2)"><path fill="#007fb5" d="M 228.175781 167.828125 C 228.632812 168.789062 229.039062 169.765625 229.394531 170.761719 C 228.792969 163.347656 225.953125 156.675781 221.429688 150.566406 C 218.117188 146.09375 213.921875 141.949219 209.96875 137.667969 C 205.523438 132.851562 203.09375 129.839844 201.089844 123.316406 C 201.125 128.003906 202.167969 132.113281 204.347656 136.238281 C 206.980469 141.210938 210.359375 143.710938 214.835938 147.886719 C 216.988281 149.902344 219 152.046875 220.855469 154.34375 C 223.859375 158.0625 227.292969 163.167969 228.175781 167.828125 Z M 228.175781 167.828125 " fill-opacity="1" fill-rule="evenodd"/></g><path fill="#007fb5" d="M 189.839844 134.800781 C 188.171875 137.925781 187.671875 141.324219 189.382812 144.953125 C 192.804688 152.214844 203.722656 158.972656 209.9375 163.996094 C 213.128906 166.574219 216.101562 169.007812 218.464844 171.496094 C 211.613281 162.023438 200.355469 156.625 194.011719 147.636719 C 191.3125 143.816406 189.675781 139.542969 189.839844 134.800781 " fill-opacity="1" fill-rule="evenodd"/><g fill="#025f8e" fill-opacity="1"><g transform="translate(101.55193, 253.640304)"><g><path d="M 10.53125 -1.375 C 10.644531 -1.289062 10.734375 -1.1875 10.796875 -1.0625 C 10.867188 -0.945312 10.90625 -0.828125 10.90625 -0.703125 C 10.90625 -0.460938 10.828125 -0.285156 10.671875 -0.171875 C 10.515625 -0.0546875 10.332031 0 10.125 0 C 9.90625 0 9.722656 -0.046875 9.578125 -0.140625 C 9.234375 -0.328125 8.953125 -0.632812 8.734375 -1.0625 C 8.515625 -1.5 8.40625 -2.140625 8.40625 -2.984375 C 8.40625 -3.554688 8.234375 -3.976562 7.890625 -4.25 C 7.554688 -4.53125 7.113281 -4.671875 6.5625 -4.671875 L 3.109375 -4.671875 L 3.109375 -0.828125 C 3.109375 -0.585938 3.039062 -0.390625 2.90625 -0.234375 C 2.769531 -0.078125 2.59375 0 2.375 0 C 2.113281 0 1.890625 -0.078125 1.703125 -0.234375 C 1.515625 -0.398438 1.421875 -0.597656 1.421875 -0.828125 L 1.421875 -11.140625 C 1.421875 -11.367188 1.5 -11.5625 1.65625 -11.71875 C 1.8125 -11.882812 2.003906 -11.96875 2.234375 -11.96875 L 7.046875 -11.96875 C 7.660156 -11.96875 8.222656 -11.816406 8.734375 -11.515625 C 9.242188 -11.210938 9.648438 -10.796875 9.953125 -10.265625 C 10.265625 -9.734375 10.421875 -9.140625 10.421875 -8.484375 C 10.421875 -7.835938 10.25 -7.238281 9.90625 -6.6875 C 9.570312 -6.132812 9.132812 -5.722656 8.59375 -5.453125 C 9.019531 -5.234375 9.351562 -4.929688 9.59375 -4.546875 C 9.84375 -4.160156 9.976562 -3.710938 10 -3.203125 C 10.039062 -2.546875 10.085938 -2.097656 10.140625 -1.859375 C 10.203125 -1.628906 10.332031 -1.46875 10.53125 -1.375 Z M 7.015625 -6.078125 C 7.296875 -6.109375 7.5625 -6.222656 7.8125 -6.421875 C 8.070312 -6.628906 8.28125 -6.90625 8.4375 -7.25 C 8.601562 -7.601562 8.6875 -7.992188 8.6875 -8.421875 C 8.6875 -8.972656 8.515625 -9.4375 8.171875 -9.8125 C 7.835938 -10.195312 7.429688 -10.390625 6.953125 -10.390625 L 3.109375 -10.390625 L 3.109375 -6.078125 Z M 7.015625 -6.078125 "/></g></g></g><g fill="#025f8e" fill-opacity="1"><g transform="translate(114.758964, 253.640304)"><g><path d="M 12.296875 -5.984375 C 12.296875 -4.828125 12.046875 -3.78125 11.546875 -2.84375 C 11.046875 -1.914062 10.359375 -1.179688 9.484375 -0.640625 C 8.609375 -0.0976562 7.617188 0.171875 6.515625 0.171875 C 5.410156 0.171875 4.414062 -0.0976562 3.53125 -0.640625 C 2.65625 -1.179688 1.96875 -1.914062 1.46875 -2.84375 C 0.976562 -3.78125 0.734375 -4.828125 0.734375 -5.984375 C 0.734375 -7.128906 0.976562 -8.171875 1.46875 -9.109375 C 1.96875 -10.046875 2.65625 -10.785156 3.53125 -11.328125 C 4.414062 -11.867188 5.410156 -12.140625 6.515625 -12.140625 C 7.617188 -12.140625 8.609375 -11.867188 9.484375 -11.328125 C 10.359375 -10.785156 11.046875 -10.046875 11.546875 -9.109375 C 12.046875 -8.171875 12.296875 -7.128906 12.296875 -5.984375 Z M 10.53125 -5.984375 C 10.53125 -6.835938 10.359375 -7.609375 10.015625 -8.296875 C 9.671875 -8.984375 9.191406 -9.523438 8.578125 -9.921875 C 7.972656 -10.316406 7.285156 -10.515625 6.515625 -10.515625 C 5.734375 -10.515625 5.035156 -10.316406 4.421875 -9.921875 C 3.816406 -9.535156 3.34375 -9 3 -8.3125 C 2.664062 -7.625 2.5 -6.847656 2.5 -5.984375 C 2.5 -5.128906 2.664062 -4.351562 3 -3.65625 C 3.34375 -2.96875 3.816406 -2.425781 4.421875 -2.03125 C 5.035156 -1.644531 5.734375 -1.453125 6.515625 -1.453125 C 7.285156 -1.453125 7.972656 -1.644531 8.578125 -2.03125 C 9.191406 -2.425781 9.671875 -2.96875 10.015625 -3.65625 C 10.359375 -4.351562 10.53125 -5.128906 10.53125 -5.984375 Z M 10.53125 -5.984375 "/></g></g></g><g fill="#025f8e" fill-opacity="1"><g transform="translate(129.366975, 253.640304)"><g/></g></g><g fill="#025f8e" fill-opacity="1"><g transform="translate(135.688727, 253.640304)"><g><path d="M 5.046875 0.171875 C 4.210938 0.171875 3.472656 0.0546875 2.828125 -0.171875 C 2.191406 -0.410156 1.585938 -0.789062 1.015625 -1.3125 C 0.773438 -1.519531 0.65625 -1.753906 0.65625 -2.015625 C 0.65625 -2.222656 0.734375 -2.410156 0.890625 -2.578125 C 1.046875 -2.742188 1.234375 -2.828125 1.453125 -2.828125 C 1.648438 -2.828125 1.816406 -2.757812 1.953125 -2.625 C 2.398438 -2.207031 2.863281 -1.898438 3.34375 -1.703125 C 3.832031 -1.503906 4.390625 -1.40625 5.015625 -1.40625 C 5.722656 -1.40625 6.328125 -1.566406 6.828125 -1.890625 C 7.328125 -2.222656 7.578125 -2.640625 7.578125 -3.140625 C 7.566406 -3.734375 7.316406 -4.191406 6.828125 -4.515625 C 6.347656 -4.847656 5.609375 -5.117188 4.609375 -5.328125 C 3.441406 -5.566406 2.539062 -5.957031 1.90625 -6.5 C 1.269531 -7.050781 0.953125 -7.8125 0.953125 -8.78125 C 0.953125 -9.457031 1.128906 -10.046875 1.484375 -10.546875 C 1.835938 -11.054688 2.328125 -11.445312 2.953125 -11.71875 C 3.578125 -12 4.285156 -12.140625 5.078125 -12.140625 C 5.785156 -12.140625 6.453125 -12.023438 7.078125 -11.796875 C 7.703125 -11.566406 8.207031 -11.265625 8.59375 -10.890625 C 8.851562 -10.660156 8.984375 -10.414062 8.984375 -10.15625 C 8.984375 -9.945312 8.90625 -9.765625 8.75 -9.609375 C 8.601562 -9.453125 8.421875 -9.375 8.203125 -9.375 C 8.046875 -9.375 7.914062 -9.414062 7.8125 -9.5 C 7.519531 -9.800781 7.109375 -10.050781 6.578125 -10.25 C 6.054688 -10.457031 5.554688 -10.5625 5.078125 -10.5625 C 4.316406 -10.5625 3.707031 -10.40625 3.25 -10.09375 C 2.800781 -9.78125 2.578125 -9.367188 2.578125 -8.859375 C 2.578125 -8.296875 2.800781 -7.863281 3.25 -7.5625 C 3.707031 -7.269531 4.378906 -7.023438 5.265625 -6.828125 C 6.148438 -6.628906 6.875 -6.398438 7.4375 -6.140625 C 8.007812 -5.878906 8.445312 -5.515625 8.75 -5.046875 C 9.0625 -4.578125 9.21875 -3.96875 9.21875 -3.21875 C 9.21875 -2.550781 9.03125 -1.960938 8.65625 -1.453125 C 8.289062 -0.941406 7.785156 -0.539062 7.140625 -0.25 C 6.503906 0.03125 5.804688 0.171875 5.046875 0.171875 Z M 5.046875 0.171875 "/></g></g></g><g fill="#025f8e" fill-opacity="1"><g transform="translate(147.221421, 253.640304)"><g><path d="M 8.1875 -1.578125 C 8.425781 -1.578125 8.625 -1.492188 8.78125 -1.328125 C 8.9375 -1.171875 9.015625 -0.984375 9.015625 -0.765625 C 9.015625 -0.535156 8.9375 -0.347656 8.78125 -0.203125 C 8.625 -0.0664062 8.425781 0 8.1875 0 L 2.234375 0 C 2.003906 0 1.8125 -0.078125 1.65625 -0.234375 C 1.5 -0.398438 1.421875 -0.597656 1.421875 -0.828125 L 1.421875 -11.140625 C 1.421875 -11.367188 1.5 -11.5625 1.65625 -11.71875 C 1.8125 -11.882812 2.003906 -11.96875 2.234375 -11.96875 L 8.1875 -11.96875 C 8.425781 -11.96875 8.625 -11.890625 8.78125 -11.734375 C 8.9375 -11.585938 9.015625 -11.394531 9.015625 -11.15625 C 9.015625 -10.925781 8.9375 -10.738281 8.78125 -10.59375 C 8.625 -10.457031 8.425781 -10.390625 8.1875 -10.390625 L 3.109375 -10.390625 L 3.109375 -6.90625 L 7.421875 -6.90625 C 7.660156 -6.90625 7.851562 -6.832031 8 -6.6875 C 8.15625 -6.539062 8.234375 -6.351562 8.234375 -6.125 C 8.234375 -5.882812 8.15625 -5.691406 8 -5.546875 C 7.851562 -5.410156 7.660156 -5.34375 7.421875 -5.34375 L 3.109375 -5.34375 L 3.109375 -1.578125 Z M 8.1875 -1.578125 "/></g></g></g><g fill="#025f8e" fill-opacity="1"><g transform="translate(158.549098, 253.640304)"><g><path d="M 10.53125 -1.375 C 10.644531 -1.289062 10.734375 -1.1875 10.796875 -1.0625 C 10.867188 -0.945312 10.90625 -0.828125 10.90625 -0.703125 C 10.90625 -0.460938 10.828125 -0.285156 10.671875 -0.171875 C 10.515625 -0.0546875 10.332031 0 10.125 0 C 9.90625 0 9.722656 -0.046875 9.578125 -0.140625 C 9.234375 -0.328125 8.953125 -0.632812 8.734375 -1.0625 C 8.515625 -1.5 8.40625 -2.140625 8.40625 -2.984375 C 8.40625 -3.554688 8.234375 -3.976562 7.890625 -4.25 C 7.554688 -4.53125 7.113281 -4.671875 6.5625 -4.671875 L 3.109375 -4.671875 L 3.109375 -0.828125 C 3.109375 -0.585938 3.039062 -0.390625 2.90625 -0.234375 C 2.769531 -0.078125 2.59375 0 2.375 0 C 2.113281 0 1.890625 -0.078125 1.703125 -0.234375 C 1.515625 -0.398438 1.421875 -0.597656 1.421875 -0.828125 L 1.421875 -11.140625 C 1.421875 -11.367188 1.5 -11.5625 1.65625 -11.71875 C 1.8125 -11.882812 2.003906 -11.96875 2.234375 -11.96875 L 7.046875 -11.96875 C 7.660156 -11.96875 8.222656 -11.816406 8.734375 -11.515625 C 9.242188 -11.210938 9.648438 -10.796875 9.953125 -10.265625 C 10.265625 -9.734375 10.421875 -9.140625 10.421875 -8.484375 C 10.421875 -7.835938 10.25 -7.238281 9.90625 -6.6875 C 9.570312 -6.132812 9.132812 -5.722656 8.59375 -5.453125 C 9.019531 -5.234375 9.351562 -4.929688 9.59375 -4.546875 C 9.84375 -4.160156 9.976562 -3.710938 10 -3.203125 C 10.039062 -2.546875 10.085938 -2.097656 10.140625 -1.859375 C 10.203125 -1.628906 10.332031 -1.46875 10.53125 -1.375 Z M 7.015625 -6.078125 C 7.296875 -6.109375 7.5625 -6.222656 7.8125 -6.421875 C 8.070312 -6.628906 8.28125 -6.90625 8.4375 -7.25 C 8.601562 -7.601562 8.6875 -7.992188 8.6875 -8.421875 C 8.6875 -8.972656 8.515625 -9.4375 8.171875 -9.8125 C 7.835938 -10.195312 7.429688 -10.390625 6.953125 -10.390625 L 3.109375 -10.390625 L 3.109375 -6.078125 Z M 7.015625 -6.078125 "/></g></g></g><g fill="#025f8e" fill-opacity="1"><g transform="translate(171.756135, 253.640304)"><g><path d="M 10.125 -11.984375 C 10.351562 -11.984375 10.546875 -11.90625 10.703125 -11.75 C 10.867188 -11.601562 10.953125 -11.425781 10.953125 -11.21875 C 10.953125 -11.101562 10.925781 -10.976562 10.875 -10.84375 L 6.515625 -0.53125 C 6.429688 -0.363281 6.316406 -0.234375 6.171875 -0.140625 C 6.023438 -0.046875 5.867188 0 5.703125 0 C 5.554688 -0.0078125 5.414062 -0.0546875 5.28125 -0.140625 C 5.15625 -0.234375 5.050781 -0.359375 4.96875 -0.515625 L 0.609375 -10.84375 C 0.566406 -10.925781 0.546875 -11.046875 0.546875 -11.203125 C 0.546875 -11.441406 0.628906 -11.632812 0.796875 -11.78125 C 0.972656 -11.925781 1.164062 -12 1.375 -12 C 1.707031 -12 1.957031 -11.816406 2.125 -11.453125 L 5.84375 -2.65625 L 9.375 -11.46875 C 9.445312 -11.625 9.546875 -11.75 9.671875 -11.84375 C 9.804688 -11.9375 9.957031 -11.984375 10.125 -11.984375 Z M 10.125 -11.984375 "/></g></g></g><g fill="#025f8e" fill-opacity="1"><g transform="translate(184.826494, 253.640304)"><g><path d="M 3.109375 -0.84375 C 3.109375 -0.601562 3.019531 -0.398438 2.84375 -0.234375 C 2.675781 -0.078125 2.476562 0 2.25 0 C 2 0 1.796875 -0.078125 1.640625 -0.234375 C 1.492188 -0.398438 1.421875 -0.601562 1.421875 -0.84375 L 1.421875 -11.140625 C 1.421875 -11.367188 1.5 -11.5625 1.65625 -11.71875 C 1.8125 -11.882812 2.019531 -11.96875 2.28125 -11.96875 C 2.5 -11.96875 2.691406 -11.882812 2.859375 -11.71875 C 3.023438 -11.5625 3.109375 -11.367188 3.109375 -11.140625 Z M 3.109375 -0.84375 "/></g></g></g><g fill="#025f8e" fill-opacity="1"><g transform="translate(190.943224, 253.640304)"><g><path d="M 9.953125 -11.265625 C 10.222656 -11.117188 10.359375 -10.890625 10.359375 -10.578125 C 10.359375 -10.367188 10.289062 -10.179688 10.15625 -10.015625 C 10.019531 -9.835938 9.832031 -9.75 9.59375 -9.75 C 9.425781 -9.75 9.269531 -9.785156 9.125 -9.859375 C 8.414062 -10.265625 7.65625 -10.46875 6.84375 -10.46875 C 5.988281 -10.46875 5.234375 -10.273438 4.578125 -9.890625 C 3.921875 -9.515625 3.410156 -8.988281 3.046875 -8.3125 C 2.679688 -7.632812 2.5 -6.859375 2.5 -5.984375 C 2.5 -5.035156 2.6875 -4.21875 3.0625 -3.53125 C 3.4375 -2.851562 3.953125 -2.332031 4.609375 -1.96875 C 5.273438 -1.613281 6.019531 -1.4375 6.84375 -1.4375 C 7.6875 -1.4375 8.445312 -1.640625 9.125 -2.046875 C 9.257812 -2.117188 9.410156 -2.15625 9.578125 -2.15625 C 9.828125 -2.15625 10.023438 -2.054688 10.171875 -1.859375 C 10.304688 -1.691406 10.375 -1.507812 10.375 -1.3125 C 10.375 -1.175781 10.335938 -1.046875 10.265625 -0.921875 C 10.191406 -0.804688 10.09375 -0.71875 9.96875 -0.65625 C 9.519531 -0.40625 9.019531 -0.203125 8.46875 -0.046875 C 7.914062 0.0976562 7.375 0.171875 6.84375 0.171875 C 5.726562 0.171875 4.707031 -0.0703125 3.78125 -0.5625 C 2.851562 -1.050781 2.113281 -1.765625 1.5625 -2.703125 C 1.007812 -3.640625 0.734375 -4.734375 0.734375 -5.984375 C 0.734375 -7.128906 1 -8.164062 1.53125 -9.09375 C 2.0625 -10.03125 2.789062 -10.757812 3.71875 -11.28125 C 4.644531 -11.8125 5.6875 -12.078125 6.84375 -12.078125 C 7.945312 -12.078125 8.984375 -11.804688 9.953125 -11.265625 Z M 9.953125 -11.265625 "/></g></g></g><g fill="#025f8e" fill-opacity="1"><g transform="translate(203.432688, 253.640304)"><g><path d="M 8.1875 -1.578125 C 8.425781 -1.578125 8.625 -1.492188 8.78125 -1.328125 C 8.9375 -1.171875 9.015625 -0.984375 9.015625 -0.765625 C 9.015625 -0.535156 8.9375 -0.347656 8.78125 -0.203125 C 8.625 -0.0664062 8.425781 0 8.1875 0 L 2.234375 0 C 2.003906 0 1.8125 -0.078125 1.65625 -0.234375 C 1.5 -0.398438 1.421875 -0.597656 1.421875 -0.828125 L 1.421875 -11.140625 C 1.421875 -11.367188 1.5 -11.5625 1.65625 -11.71875 C 1.8125 -11.882812 2.003906 -11.96875 2.234375 -11.96875 L 8.1875 -11.96875 C 8.425781 -11.96875 8.625 -11.890625 8.78125 -11.734375 C 8.9375 -11.585938 9.015625 -11.394531 9.015625 -11.15625 C 9.015625 -10.925781 8.9375 -10.738281 8.78125 -10.59375 C 8.625 -10.457031 8.425781 -10.390625 8.1875 -10.390625 L 3.109375 -10.390625 L 3.109375 -6.90625 L 7.421875 -6.90625 C 7.660156 -6.90625 7.851562 -6.832031 8 -6.6875 C 8.15625 -6.539062 8.234375 -6.351562 8.234375 -6.125 C 8.234375 -5.882812 8.15625 -5.691406 8 -5.546875 C 7.851562 -5.410156 7.660156 -5.34375 7.421875 -5.34375 L 3.109375 -5.34375 L 3.109375 -1.578125 Z M 8.1875 -1.578125 "/></g></g></g><g fill="#025f8e" fill-opacity="1"><g transform="translate(214.760368, 253.640304)"><g/></g></g><g fill="#025f8e" fill-opacity="1"><g transform="translate(221.082122, 253.640304)"><g><path d="M 6.203125 -11.96875 C 6.804688 -11.96875 7.363281 -11.800781 7.875 -11.46875 C 8.394531 -11.144531 8.804688 -10.703125 9.109375 -10.140625 C 9.410156 -9.585938 9.5625 -8.976562 9.5625 -8.3125 C 9.5625 -7.632812 9.410156 -7.007812 9.109375 -6.4375 C 8.804688 -5.875 8.394531 -5.425781 7.875 -5.09375 C 7.363281 -4.757812 6.804688 -4.59375 6.203125 -4.59375 L 2.984375 -4.59375 L 2.984375 -0.828125 C 2.984375 -0.597656 2.910156 -0.398438 2.765625 -0.234375 C 2.617188 -0.078125 2.429688 0 2.203125 0 C 1.960938 0 1.769531 -0.078125 1.625 -0.234375 C 1.488281 -0.390625 1.421875 -0.585938 1.421875 -0.828125 L 1.421875 -11.140625 C 1.421875 -11.367188 1.5 -11.5625 1.65625 -11.71875 C 1.8125 -11.882812 2.003906 -11.96875 2.234375 -11.96875 Z M 6.203125 -6.15625 C 6.515625 -6.15625 6.800781 -6.253906 7.0625 -6.453125 C 7.320312 -6.648438 7.53125 -6.914062 7.6875 -7.25 C 7.84375 -7.582031 7.921875 -7.9375 7.921875 -8.3125 C 7.921875 -8.882812 7.75 -9.375 7.40625 -9.78125 C 7.070312 -10.1875 6.671875 -10.390625 6.203125 -10.390625 L 2.984375 -10.390625 L 2.984375 -6.15625 Z M 6.203125 -6.15625 "/></g></g></g><g fill="#025f8e" fill-opacity="1"><g transform="translate(232.922345, 253.640304)"><g><path d="M 12.296875 -5.984375 C 12.296875 -4.828125 12.046875 -3.78125 11.546875 -2.84375 C 11.046875 -1.914062 10.359375 -1.179688 9.484375 -0.640625 C 8.609375 -0.0976562 7.617188 0.171875 6.515625 0.171875 C 5.410156 0.171875 4.414062 -0.0976562 3.53125 -0.640625 C 2.65625 -1.179688 1.96875 -1.914062 1.46875 -2.84375 C 0.976562 -3.78125 0.734375 -4.828125 0.734375 -5.984375 C 0.734375 -7.128906 0.976562 -8.171875 1.46875 -9.109375 C 1.96875 -10.046875 2.65625 -10.785156 3.53125 -11.328125 C 4.414062 -11.867188 5.410156 -12.140625 6.515625 -12.140625 C 7.617188 -12.140625 8.609375 -11.867188 9.484375 -11.328125 C 10.359375 -10.785156 11.046875 -10.046875 11.546875 -9.109375 C 12.046875 -8.171875 12.296875 -7.128906 12.296875 -5.984375 Z M 10.53125 -5.984375 C 10.53125 -6.835938 10.359375 -7.609375 10.015625 -8.296875 C 9.671875 -8.984375 9.191406 -9.523438 8.578125 -9.921875 C 7.972656 -10.316406 7.285156 -10.515625 6.515625 -10.515625 C 5.734375 -10.515625 5.035156 -10.316406 4.421875 -9.921875 C 3.816406 -9.535156 3.34375 -9 3 -8.3125 C 2.664062 -7.625 2.5 -6.847656 2.5 -5.984375 C 2.5 -5.128906 2.664062 -4.351562 3 -3.65625 C 3.34375 -2.96875 3.816406 -2.425781 4.421875 -2.03125 C 5.035156 -1.644531 5.734375 -1.453125 6.515625 -1.453125 C 7.285156 -1.453125 7.972656 -1.644531 8.578125 -2.03125 C 9.191406 -2.425781 9.671875 -2.96875 10.015625 -3.65625 C 10.359375 -4.351562 10.53125 -5.128906 10.53125 -5.984375 Z M 10.53125 -5.984375 "/></g></g></g><g fill="#025f8e" fill-opacity="1"><g transform="translate(247.530358, 253.640304)"><g><path d="M 3.109375 -0.84375 C 3.109375 -0.601562 3.019531 -0.398438 2.84375 -0.234375 C 2.675781 -0.078125 2.476562 0 2.25 0 C 2 0 1.796875 -0.078125 1.640625 -0.234375 C 1.492188 -0.398438 1.421875 -0.601562 1.421875 -0.84375 L 1.421875 -11.140625 C 1.421875 -11.367188 1.5 -11.5625 1.65625 -11.71875 C 1.8125 -11.882812 2.019531 -11.96875 2.28125 -11.96875 C 2.5 -11.96875 2.691406 -11.882812 2.859375 -11.71875 C 3.023438 -11.5625 3.109375 -11.367188 3.109375 -11.140625 Z M 3.109375 -0.84375 "/></g></g></g><g fill="#025f8e" fill-opacity="1"><g transform="translate(253.647088, 253.640304)"><g><path d="M 10.359375 -11.96875 C 10.578125 -11.96875 10.753906 -11.894531 10.890625 -11.75 C 11.023438 -11.601562 11.09375 -11.425781 11.09375 -11.21875 L 11.09375 -0.84375 C 11.09375 -0.601562 11.015625 -0.398438 10.859375 -0.234375 C 10.703125 -0.078125 10.503906 0 10.265625 0 C 10.140625 0 10.015625 -0.0195312 9.890625 -0.0625 C 9.773438 -0.101562 9.6875 -0.160156 9.625 -0.234375 L 2.90625 -8.984375 L 2.90625 -0.75 C 2.90625 -0.53125 2.832031 -0.347656 2.6875 -0.203125 C 2.550781 -0.0664062 2.375 0 2.15625 0 C 1.9375 0 1.757812 -0.0664062 1.625 -0.203125 C 1.488281 -0.347656 1.421875 -0.53125 1.421875 -0.75 L 1.421875 -11.140625 C 1.421875 -11.378906 1.492188 -11.578125 1.640625 -11.734375 C 1.796875 -11.890625 1.988281 -11.96875 2.21875 -11.96875 C 2.351562 -11.96875 2.484375 -11.941406 2.609375 -11.890625 C 2.734375 -11.835938 2.832031 -11.765625 2.90625 -11.671875 L 9.609375 -2.90625 L 9.609375 -11.21875 C 9.609375 -11.425781 9.675781 -11.601562 9.8125 -11.75 C 9.957031 -11.894531 10.140625 -11.96875 10.359375 -11.96875 Z M 10.359375 -11.96875 "/></g></g></g><g fill="#025f8e" fill-opacity="1"><g transform="translate(267.742545, 253.640304)"><g><path d="M 9.171875 -11.96875 C 9.410156 -11.96875 9.609375 -11.894531 9.765625 -11.75 C 9.921875 -11.601562 10 -11.410156 10 -11.171875 C 10 -10.929688 9.921875 -10.742188 9.765625 -10.609375 C 9.609375 -10.472656 9.410156 -10.40625 9.171875 -10.40625 L 6.140625 -10.40625 L 6.140625 -0.828125 C 6.140625 -0.597656 6.054688 -0.398438 5.890625 -0.234375 C 5.722656 -0.078125 5.515625 0 5.265625 0 C 5.015625 0 4.804688 -0.078125 4.640625 -0.234375 C 4.472656 -0.398438 4.390625 -0.597656 4.390625 -0.828125 L 4.390625 -10.40625 L 1.375 -10.40625 C 1.132812 -10.40625 0.9375 -10.476562 0.78125 -10.625 C 0.625 -10.769531 0.546875 -10.960938 0.546875 -11.203125 C 0.546875 -11.421875 0.625 -11.601562 0.78125 -11.75 C 0.9375 -11.894531 1.132812 -11.96875 1.375 -11.96875 Z M 9.171875 -11.96875 "/></g></g></g><g fill="#00adef" fill-opacity="1"><g transform="translate(118.702295, 264.184044)"><g/></g></g><g fill="#00adef" fill-opacity="1"><g transform="translate(122.404567, 264.184044)"><g><path d="M 1.601562 -3.761719 L 1.582031 -4.535156 L 0.8125 -4.535156 L 0.8125 0 L 1.609375 0 L 1.609375 -2.421875 C 1.609375 -3.441406 2.140625 -3.832031 3.027344 -3.832031 L 3.027344 -4.585938 C 2.390625 -4.578125 1.835938 -4.246094 1.601562 -3.761719 Z M 1.601562 -3.761719 "/></g></g></g><g fill="#00adef" fill-opacity="1"><g transform="translate(126.797392, 264.184044)"><g><path d="M 4.78125 -2.359375 C 4.78125 -3.875 3.898438 -4.628906 2.679688 -4.628906 C 1.402344 -4.628906 0.449219 -3.75 0.449219 -2.269531 C 0.449219 -0.785156 1.382812 0.09375 2.703125 0.09375 C 3.601562 0.09375 4.355469 -0.414062 4.683594 -1.242188 L 3.964844 -1.394531 C 3.722656 -0.886719 3.253906 -0.578125 2.695312 -0.578125 C 1.914062 -0.578125 1.25 -1.089844 1.226562 -2.140625 L 4.769531 -2.140625 Z M 2.679688 -4.007812 C 3.390625 -4.007812 3.914062 -3.597656 3.976562 -2.753906 L 1.257812 -2.753906 C 1.394531 -3.597656 1.957031 -4.007812 2.679688 -4.007812 Z M 2.679688 -4.007812 "/></g></g></g><g fill="#00adef" fill-opacity="1"><g transform="translate(133.261001, 264.184044)"><g><path d="M 3.207031 -4.621094 C 2.496094 -4.621094 1.886719 -4.246094 1.601562 -3.652344 L 1.582031 -4.535156 L 0.8125 -4.535156 L 0.8125 2.324219 L 1.609375 2.324219 L 1.609375 -0.859375 C 1.902344 -0.277344 2.503906 0.0976562 3.207031 0.0976562 C 4.367188 0.0976562 5.324219 -0.8125 5.324219 -2.265625 C 5.324219 -3.714844 4.367188 -4.621094 3.207031 -4.621094 Z M 3.050781 -0.59375 C 2.210938 -0.59375 1.550781 -1.308594 1.550781 -2.265625 C 1.550781 -3.214844 2.210938 -3.929688 3.050781 -3.929688 C 3.851562 -3.929688 4.527344 -3.292969 4.527344 -2.265625 C 4.527344 -1.230469 3.851562 -0.59375 3.050781 -0.59375 Z M 3.050781 -0.59375 "/></g></g></g><g fill="#00adef" fill-opacity="1"><g transform="translate(140.278048, 264.184044)"><g><path d="M 1.859375 0.0859375 C 2.414062 0.0859375 2.976562 -0.109375 3.34375 -0.613281 L 3.382812 -0.613281 C 3.46875 -0.1875 3.777344 0 4.238281 0 L 4.636719 0 L 4.636719 -0.578125 L 4.5625 -0.578125 C 4.246094 -0.578125 4.101562 -0.683594 4.101562 -1.171875 L 4.101562 -3.046875 C 4.101562 -4.234375 3.269531 -4.613281 2.363281 -4.613281 C 1.355469 -4.613281 0.695312 -4.195312 0.558594 -3.316406 L 1.277344 -3.164062 C 1.351562 -3.769531 1.792969 -4.007812 2.324219 -4.007812 C 2.847656 -4.007812 3.328125 -3.777344 3.328125 -3.117188 C 3.328125 -2.886719 3.203125 -2.75 2.925781 -2.699219 L 2.191406 -2.578125 C 1.203125 -2.414062 0.476562 -2.09375 0.476562 -1.152344 C 0.476562 -0.285156 1.105469 0.0859375 1.859375 0.0859375 Z M 2.042969 -0.558594 C 1.605469 -0.558594 1.253906 -0.746094 1.253906 -1.21875 C 1.253906 -1.664062 1.582031 -1.863281 2.1875 -1.964844 L 3.386719 -2.195312 C 3.386719 -1.167969 2.835938 -0.558594 2.042969 -0.558594 Z M 2.042969 -0.558594 "/></g></g></g><g fill="#00adef" fill-opacity="1"><g transform="translate(146.474163, 264.184044)"><g><path d="M 1.21875 -5.601562 C 1.507812 -5.601562 1.753906 -5.84375 1.753906 -6.140625 C 1.753906 -6.4375 1.507812 -6.675781 1.21875 -6.675781 C 0.921875 -6.675781 0.679688 -6.4375 0.679688 -6.140625 C 0.679688 -5.84375 0.921875 -5.601562 1.21875 -5.601562 Z M 0.8125 0 L 1.613281 0 L 1.613281 -4.535156 L 0.8125 -4.535156 Z M 0.8125 0 "/></g></g></g><g fill="#00adef" fill-opacity="1"><g transform="translate(150.147519, 264.184044)"><g><path d="M 1.601562 -3.761719 L 1.582031 -4.535156 L 0.8125 -4.535156 L 0.8125 0 L 1.609375 0 L 1.609375 -2.421875 C 1.609375 -3.441406 2.140625 -3.832031 3.027344 -3.832031 L 3.027344 -4.585938 C 2.390625 -4.578125 1.835938 -4.246094 1.601562 -3.761719 Z M 1.601562 -3.761719 "/></g></g></g><g fill="#00adef" fill-opacity="1"><g transform="translate(154.540344, 264.184044)"><g/></g></g><g fill="#00adef" fill-opacity="1"><g transform="translate(158.241372, 264.184044)"><g><path d="M 1.859375 0.0859375 C 2.414062 0.0859375 2.976562 -0.109375 3.34375 -0.613281 L 3.382812 -0.613281 C 3.46875 -0.1875 3.777344 0 4.238281 0 L 4.636719 0 L 4.636719 -0.578125 L 4.5625 -0.578125 C 4.246094 -0.578125 4.101562 -0.683594 4.101562 -1.171875 L 4.101562 -3.046875 C 4.101562 -4.234375 3.269531 -4.613281 2.363281 -4.613281 C 1.355469 -4.613281 0.695312 -4.195312 0.558594 -3.316406 L 1.277344 -3.164062 C 1.351562 -3.769531 1.792969 -4.007812 2.324219 -4.007812 C 2.847656 -4.007812 3.328125 -3.777344 3.328125 -3.117188 C 3.328125 -2.886719 3.203125 -2.75 2.925781 -2.699219 L 2.191406 -2.578125 C 1.203125 -2.414062 0.476562 -2.09375 0.476562 -1.152344 C 0.476562 -0.285156 1.105469 0.0859375 1.859375 0.0859375 Z M 2.042969 -0.558594 C 1.605469 -0.558594 1.253906 -0.746094 1.253906 -1.21875 C 1.253906 -1.664062 1.582031 -1.863281 2.1875 -1.964844 L 3.386719 -2.195312 C 3.386719 -1.167969 2.835938 -0.558594 2.042969 -0.558594 Z M 2.042969 -0.558594 "/></g></g></g><g fill="#00adef" fill-opacity="1"><g transform="translate(164.437487, 264.184044)"><g><path d="M 2.953125 -4.621094 C 2.367188 -4.621094 1.894531 -4.378906 1.609375 -3.953125 L 1.609375 -4.535156 L 0.8125 -4.535156 L 0.8125 0 L 1.609375 0 L 1.609375 -2.710938 C 1.613281 -3.566406 2.113281 -3.949219 2.734375 -3.949219 C 3.265625 -3.949219 3.722656 -3.648438 3.722656 -2.875 L 3.722656 0 L 4.519531 0 L 4.519531 -3.054688 C 4.519531 -4.074219 3.882812 -4.621094 2.953125 -4.621094 Z M 2.953125 -4.621094 "/></g></g></g><g fill="#00adef" fill-opacity="1"><g transform="translate(170.933378, 264.184044)"><g><path d="M 4.160156 -7.085938 L 4.160156 -3.671875 C 3.871094 -4.253906 3.265625 -4.621094 2.566406 -4.621094 C 1.40625 -4.621094 0.441406 -3.695312 0.441406 -2.265625 C 0.441406 -0.832031 1.402344 0.0976562 2.566406 0.0976562 C 3.277344 0.0976562 3.882812 -0.28125 4.171875 -0.882812 L 4.1875 0 L 4.960938 0 L 4.960938 -7.085938 Z M 2.730469 -0.59375 C 1.90625 -0.59375 1.242188 -1.253906 1.242188 -2.265625 C 1.242188 -3.277344 1.90625 -3.933594 2.730469 -3.933594 C 3.558594 -3.933594 4.210938 -3.21875 4.210938 -2.265625 C 4.210938 -1.308594 3.5625 -0.59375 2.730469 -0.59375 Z M 2.730469 -0.59375 "/></g></g></g><g fill="#00adef" fill-opacity="1"><g transform="translate(177.950427, 264.184044)"><g/></g></g><g fill="#00adef" fill-opacity="1"><g transform="translate(181.651454, 264.184044)"><g><path d="M 5.449219 -4.621094 C 4.871094 -4.621094 4.402344 -4.363281 4.128906 -3.878906 C 3.902344 -4.367188 3.429688 -4.621094 2.851562 -4.621094 C 2.3125 -4.621094 1.875 -4.378906 1.609375 -3.949219 L 1.609375 -4.535156 L 0.8125 -4.535156 L 0.8125 0 L 1.609375 0 L 1.609375 -2.777344 C 1.609375 -3.597656 2.035156 -3.949219 2.566406 -3.949219 C 3.058594 -3.949219 3.460938 -3.632812 3.460938 -2.914062 L 3.460938 0 L 4.273438 0 L 4.273438 -2.804688 C 4.273438 -3.597656 4.683594 -3.949219 5.226562 -3.949219 C 5.703125 -3.949219 6.109375 -3.644531 6.109375 -2.949219 L 6.109375 0 L 6.90625 0 L 6.90625 -3.15625 C 6.90625 -4.109375 6.296875 -4.621094 5.449219 -4.621094 Z M 5.449219 -4.621094 "/></g></g></g><g fill="#00adef" fill-opacity="1"><g transform="translate(190.53635, 264.184044)"><g><path d="M 1.859375 0.0859375 C 2.414062 0.0859375 2.976562 -0.109375 3.34375 -0.613281 L 3.382812 -0.613281 C 3.46875 -0.1875 3.777344 0 4.238281 0 L 4.636719 0 L 4.636719 -0.578125 L 4.5625 -0.578125 C 4.246094 -0.578125 4.101562 -0.683594 4.101562 -1.171875 L 4.101562 -3.046875 C 4.101562 -4.234375 3.269531 -4.613281 2.363281 -4.613281 C 1.355469 -4.613281 0.695312 -4.195312 0.558594 -3.316406 L 1.277344 -3.164062 C 1.351562 -3.769531 1.792969 -4.007812 2.324219 -4.007812 C 2.847656 -4.007812 3.328125 -3.777344 3.328125 -3.117188 C 3.328125 -2.886719 3.203125 -2.75 2.925781 -2.699219 L 2.191406 -2.578125 C 1.203125 -2.414062 0.476562 -2.09375 0.476562 -1.152344 C 0.476562 -0.285156 1.105469 0.0859375 1.859375 0.0859375 Z M 2.042969 -0.558594 C 1.605469 -0.558594 1.253906 -0.746094 1.253906 -1.21875 C 1.253906 -1.664062 1.582031 -1.863281 2.1875 -1.964844 L 3.386719 -2.195312 C 3.386719 -1.167969 2.835938 -0.558594 2.042969 -0.558594 Z M 2.042969 -0.558594 "/></g></g></g><g fill="#00adef" fill-opacity="1"><g transform="translate(196.732465, 264.184044)"><g><path d="M 1.21875 -5.601562 C 1.507812 -5.601562 1.753906 -5.84375 1.753906 -6.140625 C 1.753906 -6.4375 1.507812 -6.675781 1.21875 -6.675781 C 0.921875 -6.675781 0.679688 -6.4375 0.679688 -6.140625 C 0.679688 -5.84375 0.921875 -5.601562 1.21875 -5.601562 Z M 0.8125 0 L 1.613281 0 L 1.613281 -4.535156 L 0.8125 -4.535156 Z M 0.8125 0 "/></g></g></g><g fill="#00adef" fill-opacity="1"><g transform="translate(200.405821, 264.184044)"><g><path d="M 2.953125 -4.621094 C 2.367188 -4.621094 1.894531 -4.378906 1.609375 -3.953125 L 1.609375 -4.535156 L 0.8125 -4.535156 L 0.8125 0 L 1.609375 0 L 1.609375 -2.710938 C 1.613281 -3.566406 2.113281 -3.949219 2.734375 -3.949219 C 3.265625 -3.949219 3.722656 -3.648438 3.722656 -2.875 L 3.722656 0 L 4.519531 0 L 4.519531 -3.054688 C 4.519531 -4.074219 3.882812 -4.621094 2.953125 -4.621094 Z M 2.953125 -4.621094 "/></g></g></g><g fill="#00adef" fill-opacity="1"><g transform="translate(206.901711, 264.184044)"><g><path d="M 2.261719 0 L 2.898438 0 L 2.898438 -0.636719 L 2.480469 -0.636719 C 2.117188 -0.636719 1.855469 -0.871094 1.855469 -1.316406 L 1.855469 -3.898438 L 2.898438 -3.898438 L 2.898438 -4.535156 L 1.855469 -4.535156 L 1.855469 -6.046875 L 1.113281 -6.046875 L 1.113281 -5.226562 C 1.113281 -4.730469 0.941406 -4.535156 0.464844 -4.535156 L 0.125 -4.535156 L 0.125 -3.898438 L 1.050781 -3.898438 L 1.050781 -1.230469 C 1.050781 -0.449219 1.519531 0 2.261719 0 Z M 2.261719 0 "/></g></g></g><g fill="#00adef" fill-opacity="1"><g transform="translate(211.386776, 264.184044)"><g><path d="M 4.78125 -2.359375 C 4.78125 -3.875 3.898438 -4.628906 2.679688 -4.628906 C 1.402344 -4.628906 0.449219 -3.75 0.449219 -2.269531 C 0.449219 -0.785156 1.382812 0.09375 2.703125 0.09375 C 3.601562 0.09375 4.355469 -0.414062 4.683594 -1.242188 L 3.964844 -1.394531 C 3.722656 -0.886719 3.253906 -0.578125 2.695312 -0.578125 C 1.914062 -0.578125 1.25 -1.089844 1.226562 -2.140625 L 4.769531 -2.140625 Z M 2.679688 -4.007812 C 3.390625 -4.007812 3.914062 -3.597656 3.976562 -2.753906 L 1.257812 -2.753906 C 1.394531 -3.597656 1.957031 -4.007812 2.679688 -4.007812 Z M 2.679688 -4.007812 "/></g></g></g><g fill="#00adef" fill-opacity="1"><g transform="translate(217.850387, 264.184044)"><g><path d="M 2.953125 -4.621094 C 2.367188 -4.621094 1.894531 -4.378906 1.609375 -3.953125 L 1.609375 -4.535156 L 0.8125 -4.535156 L 0.8125 0 L 1.609375 0 L 1.609375 -2.710938 C 1.613281 -3.566406 2.113281 -3.949219 2.734375 -3.949219 C 3.265625 -3.949219 3.722656 -3.648438 3.722656 -2.875 L 3.722656 0 L 4.519531 0 L 4.519531 -3.054688 C 4.519531 -4.074219 3.882812 -4.621094 2.953125 -4.621094 Z M 2.953125 -4.621094 "/></g></g></g><g fill="#00adef" fill-opacity="1"><g transform="translate(224.346277, 264.184044)"><g><path d="M 1.859375 0.0859375 C 2.414062 0.0859375 2.976562 -0.109375 3.34375 -0.613281 L 3.382812 -0.613281 C 3.46875 -0.1875 3.777344 0 4.238281 0 L 4.636719 0 L 4.636719 -0.578125 L 4.5625 -0.578125 C 4.246094 -0.578125 4.101562 -0.683594 4.101562 -1.171875 L 4.101562 -3.046875 C 4.101562 -4.234375 3.269531 -4.613281 2.363281 -4.613281 C 1.355469 -4.613281 0.695312 -4.195312 0.558594 -3.316406 L 1.277344 -3.164062 C 1.351562 -3.769531 1.792969 -4.007812 2.324219 -4.007812 C 2.847656 -4.007812 3.328125 -3.777344 3.328125 -3.117188 C 3.328125 -2.886719 3.203125 -2.75 2.925781 -2.699219 L 2.191406 -2.578125 C 1.203125 -2.414062 0.476562 -2.09375 0.476562 -1.152344 C 0.476562 -0.285156 1.105469 0.0859375 1.859375 0.0859375 Z M 2.042969 -0.558594 C 1.605469 -0.558594 1.253906 -0.746094 1.253906 -1.21875 C 1.253906 -1.664062 1.582031 -1.863281 2.1875 -1.964844 L 3.386719 -2.195312 C 3.386719 -1.167969 2.835938 -0.558594 2.042969 -0.558594 Z M 2.042969 -0.558594 "/></g></g></g><g fill="#00adef" fill-opacity="1"><g transform="translate(230.542393, 264.184044)"><g><path d="M 2.953125 -4.621094 C 2.367188 -4.621094 1.894531 -4.378906 1.609375 -3.953125 L 1.609375 -4.535156 L 0.8125 -4.535156 L 0.8125 0 L 1.609375 0 L 1.609375 -2.710938 C 1.613281 -3.566406 2.113281 -3.949219 2.734375 -3.949219 C 3.265625 -3.949219 3.722656 -3.648438 3.722656 -2.875 L 3.722656 0 L 4.519531 0 L 4.519531 -3.054688 C 4.519531 -4.074219 3.882812 -4.621094 2.953125 -4.621094 Z M 2.953125 -4.621094 "/></g></g></g><g fill="#00adef" fill-opacity="1"><g transform="translate(237.038283, 264.184044)"><g><path d="M 2.695312 0.0820312 C 3.683594 0.0820312 4.488281 -0.46875 4.769531 -1.417969 L 4.023438 -1.539062 C 3.8125 -0.921875 3.304688 -0.585938 2.691406 -0.585938 C 1.855469 -0.585938 1.226562 -1.246094 1.226562 -2.269531 C 1.226562 -3.292969 1.855469 -3.957031 2.691406 -3.957031 C 3.304688 -3.957031 3.8125 -3.621094 4.023438 -3.003906 L 4.769531 -3.125 C 4.488281 -4.074219 3.695312 -4.621094 2.695312 -4.621094 C 1.398438 -4.621094 0.429688 -3.691406 0.429688 -2.269531 C 0.429688 -0.855469 1.398438 0.0820312 2.695312 0.0820312 Z M 2.695312 0.0820312 "/></g></g></g><g fill="#00adef" fill-opacity="1"><g transform="translate(243.418878, 264.184044)"><g><path d="M 4.78125 -2.359375 C 4.78125 -3.875 3.898438 -4.628906 2.679688 -4.628906 C 1.402344 -4.628906 0.449219 -3.75 0.449219 -2.269531 C 0.449219 -0.785156 1.382812 0.09375 2.703125 0.09375 C 3.601562 0.09375 4.355469 -0.414062 4.683594 -1.242188 L 3.964844 -1.394531 C 3.722656 -0.886719 3.253906 -0.578125 2.695312 -0.578125 C 1.914062 -0.578125 1.25 -1.089844 1.226562 -2.140625 L 4.769531 -2.140625 Z M 2.679688 -4.007812 C 3.390625 -4.007812 3.914062 -3.597656 3.976562 -2.753906 L 1.257812 -2.753906 C 1.394531 -3.597656 1.957031 -4.007812 2.679688 -4.007812 Z M 2.679688 -4.007812 "/></g></g></g></svg>