<svg xmlns="http://www.w3.org/2000/svg" xmlns:xlink="http://www.w3.org/1999/xlink" width="250" zoomAndPan="magnify" viewBox="0 0 187.5 112.499997" height="150"  fill-opacity="0.5" preserveAspectRatio="xMidYMid meet" version="1.0"><defs><g/><clipPath id="004a7a666d"><path d="M 0.164062 0 L 186.835938 0 L 186.835938 112.003906 L 0.164062 112.003906 Z M 0.164062 0 " clip-rule="nonzero"/></clipPath><clipPath id="30e430d256"><path d="M 79.546875 41 L 102 41 L 102 68 L 79.546875 68 Z M 79.546875 41 " clip-rule="nonzero"/></clipPath><clipPath id="ac902244c4"><path d="M 87 32.433594 L 107 32.433594 L 107 66 L 87 66 Z M 87 32.433594 " clip-rule="nonzero"/></clipPath><clipPath id="65c2712e0b"><path d="M 93 32.433594 L 107 32.433594 L 107 55 L 93 55 Z M 93 32.433594 " clip-rule="nonzero"/></clipPath></defs><g clip-path="url(#004a7a666d)"><path fill="#ffffff" d="M 0.164062 0 L 186.835938 0 L 186.835938 112.003906 L 0.164062 112.003906 Z M 0.164062 0 " fill-opacity="1" fill-rule="nonzero"/><path fill="#ffffff" d="M 0.164062 0 L 186.835938 0 L 186.835938 112.003906 L 0.164062 112.003906 Z M 0.164062 0 " fill-opacity="1" fill-rule="nonzero"/></g><g clip-path="url(#30e430d256)"><path fill="#0d62ad" d="M 81.449219 48.503906 C 80.007812 51.089844 79.554688 53.878906 80.300781 56.917969 C 82.050781 64.066406 89.890625 70.515625 96.960938 66.960938 C 100.863281 64.996094 102.40625 60.195312 99.722656 56.472656 C 98.253906 54.433594 95.902344 52.71875 93.332031 51.082031 C 90.023438 49.042969 85.207031 45.785156 85.703125 41.292969 C 83.789062 43.398438 82.492188 45.820312 84.003906 48.523438 C 85.164062 50.59375 87.347656 52.492188 90.105469 54.292969 C 91.285156 55.175781 92.433594 56.09375 93.269531 57.316406 C 95.617188 60.761719 92.921875 63.09375 89.472656 62.699219 C 86.054688 62.304688 84.390625 60.613281 83.644531 58.242188 C 84.972656 59.332031 86.347656 60.339844 87.96875 60.769531 C 90.640625 61.480469 91.351562 59.804688 90.582031 57.953125 C 90.175781 56.976562 89.429688 56.054688 88.523438 55.316406 C 85.707031 53.023438 83.96875 51.519531 81.449219 48.503906 " fill-opacity="1" fill-rule="evenodd"/></g><path fill="#034e8f" d="M 98.5 65.941406 C 101.21875 63.632812 102.019531 59.65625 99.726562 56.472656 C 98.253906 54.433594 95.90625 52.71875 93.332031 51.082031 C 90.023438 49.042969 85.207031 45.785156 85.703125 41.292969 C 84.570312 44.59375 85.117188 46.832031 87.535156 49.183594 C 90.515625 52.089844 94.5 54.210938 97.1875 57.34375 C 99.117188 59.597656 100.132812 62.300781 98.5 65.941406 " fill-opacity="1" fill-rule="evenodd"/><path fill="#034e8f" d="M 90.867188 59.417969 C 90.898438 58.972656 90.796875 58.46875 90.582031 57.949219 C 90.175781 56.976562 89.425781 56.050781 88.519531 55.316406 C 85.703125 53.023438 83.96875 51.515625 81.449219 48.503906 C 83.960938 54.828125 88.902344 54.914062 90.867188 59.417969 " fill-opacity="1" fill-rule="evenodd"/><g clip-path="url(#ac902244c4)"><path fill="#0098da" d="M 93.378906 32.433594 C 90.164062 34.933594 86.175781 38.371094 88.054688 42.421875 C 89.609375 45.773438 94.574219 48.894531 97.402344 51.210938 C 102.480469 55.378906 106.355469 58.710938 101.238281 65.242188 C 105.445312 61.199219 107.164062 56.535156 103.113281 51.679688 C 101.992188 50.335938 100.660156 49.082031 99.132812 47.910156 C 96.246094 45.695312 92.074219 43.234375 92.046875 39.09375 C 94.519531 42.945312 96.695312 43.941406 100.046875 46.410156 C 103.15625 48.699219 105.203125 51.347656 106.246094 54.335938 C 105.972656 50.914062 104.683594 47.832031 102.625 45.011719 C 101.121094 42.949219 99.210938 41.035156 97.414062 39.058594 C 95.394531 36.835938 94.289062 35.445312 93.378906 32.433594 " fill-opacity="1" fill-rule="evenodd"/></g><g clip-path="url(#65c2712e0b)"><path fill="#007fb5" d="M 105.695312 52.980469 C 105.902344 53.425781 106.085938 53.875 106.246094 54.335938 C 105.972656 50.914062 104.683594 47.832031 102.625 45.011719 C 101.121094 42.949219 99.210938 41.035156 97.414062 39.058594 C 95.394531 36.835938 94.289062 35.445312 93.378906 32.433594 C 93.394531 34.597656 93.867188 36.496094 94.859375 38.398438 C 96.054688 40.695312 97.59375 41.847656 99.628906 43.777344 C 100.605469 44.707031 101.523438 45.695312 102.363281 46.757812 C 103.730469 48.472656 105.292969 50.828125 105.695312 52.980469 Z M 105.695312 52.980469 " fill-opacity="1" fill-rule="evenodd"/></g><path fill="#007fb5" d="M 88.261719 37.734375 C 87.503906 39.175781 87.277344 40.746094 88.054688 42.421875 C 89.609375 45.773438 94.574219 48.894531 97.398438 51.210938 C 98.851562 52.402344 100.203125 53.523438 101.277344 54.671875 C 98.164062 50.300781 93.042969 47.808594 90.15625 43.660156 C 88.929688 41.898438 88.1875 39.921875 88.261719 37.734375 " fill-opacity="1" fill-rule="evenodd"/><g fill="#025f8e" fill-opacity="1"><g transform="translate(57.690724, 78.038222)"><g><path d="M 4.84375 -0.625 C 4.90625 -0.59375 4.953125 -0.546875 4.984375 -0.484375 C 5.015625 -0.429688 5.03125 -0.378906 5.03125 -0.328125 C 5.03125 -0.210938 4.992188 -0.128906 4.921875 -0.078125 C 4.847656 -0.0234375 4.757812 0 4.65625 0 C 4.5625 0 4.476562 -0.0195312 4.40625 -0.0625 C 4.25 -0.15625 4.117188 -0.300781 4.015625 -0.5 C 3.921875 -0.695312 3.875 -0.988281 3.875 -1.375 C 3.875 -1.632812 3.796875 -1.828125 3.640625 -1.953125 C 3.484375 -2.085938 3.28125 -2.15625 3.03125 -2.15625 L 1.4375 -2.15625 L 1.4375 -0.375 C 1.4375 -0.269531 1.40625 -0.179688 1.34375 -0.109375 C 1.28125 -0.0351562 1.195312 0 1.09375 0 C 0.96875 0 0.863281 -0.0351562 0.78125 -0.109375 C 0.695312 -0.179688 0.65625 -0.269531 0.65625 -0.375 L 0.65625 -5.140625 C 0.65625 -5.242188 0.691406 -5.332031 0.765625 -5.40625 C 0.835938 -5.476562 0.925781 -5.515625 1.03125 -5.515625 L 3.25 -5.515625 C 3.53125 -5.515625 3.785156 -5.441406 4.015625 -5.296875 C 4.253906 -5.160156 4.441406 -4.96875 4.578125 -4.71875 C 4.722656 -4.476562 4.796875 -4.207031 4.796875 -3.90625 C 4.796875 -3.613281 4.71875 -3.335938 4.5625 -3.078125 C 4.40625 -2.828125 4.207031 -2.640625 3.96875 -2.515625 C 4.15625 -2.410156 4.304688 -2.269531 4.421875 -2.09375 C 4.535156 -1.914062 4.597656 -1.707031 4.609375 -1.46875 C 4.628906 -1.175781 4.648438 -0.972656 4.671875 -0.859375 C 4.703125 -0.753906 4.757812 -0.675781 4.84375 -0.625 Z M 3.234375 -2.796875 C 3.359375 -2.804688 3.476562 -2.859375 3.59375 -2.953125 C 3.71875 -3.054688 3.816406 -3.1875 3.890625 -3.34375 C 3.960938 -3.5 4 -3.675781 4 -3.875 C 4 -4.132812 3.921875 -4.347656 3.765625 -4.515625 C 3.609375 -4.691406 3.421875 -4.78125 3.203125 -4.78125 L 1.4375 -4.78125 L 1.4375 -2.796875 Z M 3.234375 -2.796875 "/></g></g></g><g fill="#025f8e" fill-opacity="1"><g transform="translate(63.783755, 78.038222)"><g><path d="M 5.65625 -2.75 C 5.65625 -2.21875 5.539062 -1.738281 5.3125 -1.3125 C 5.09375 -0.882812 4.78125 -0.546875 4.375 -0.296875 C 3.96875 -0.046875 3.507812 0.078125 3 0.078125 C 2.488281 0.078125 2.03125 -0.046875 1.625 -0.296875 C 1.226562 -0.546875 0.914062 -0.882812 0.6875 -1.3125 C 0.457031 -1.738281 0.34375 -2.21875 0.34375 -2.75 C 0.34375 -3.28125 0.457031 -3.757812 0.6875 -4.1875 C 0.914062 -4.625 1.226562 -4.96875 1.625 -5.21875 C 2.03125 -5.46875 2.488281 -5.59375 3 -5.59375 C 3.507812 -5.59375 3.96875 -5.46875 4.375 -5.21875 C 4.78125 -4.96875 5.09375 -4.625 5.3125 -4.1875 C 5.539062 -3.757812 5.65625 -3.28125 5.65625 -2.75 Z M 4.84375 -2.75 C 4.84375 -3.144531 4.765625 -3.5 4.609375 -3.8125 C 4.453125 -4.132812 4.234375 -4.382812 3.953125 -4.5625 C 3.671875 -4.75 3.351562 -4.84375 3 -4.84375 C 2.644531 -4.84375 2.328125 -4.753906 2.046875 -4.578125 C 1.765625 -4.398438 1.546875 -4.148438 1.390625 -3.828125 C 1.234375 -3.515625 1.15625 -3.15625 1.15625 -2.75 C 1.15625 -2.363281 1.234375 -2.007812 1.390625 -1.6875 C 1.546875 -1.375 1.765625 -1.125 2.046875 -0.9375 C 2.328125 -0.757812 2.644531 -0.671875 3 -0.671875 C 3.351562 -0.671875 3.671875 -0.757812 3.953125 -0.9375 C 4.234375 -1.125 4.453125 -1.375 4.609375 -1.6875 C 4.765625 -2.007812 4.84375 -2.363281 4.84375 -2.75 Z M 4.84375 -2.75 "/></g></g></g><g fill="#025f8e" fill-opacity="1"><g transform="translate(70.523123, 78.038222)"><g/></g></g><g fill="#025f8e" fill-opacity="1"><g transform="translate(73.439647, 78.038222)"><g><path d="M 2.328125 0.078125 C 1.941406 0.078125 1.597656 0.0234375 1.296875 -0.078125 C 1.003906 -0.191406 0.726562 -0.367188 0.46875 -0.609375 C 0.351562 -0.703125 0.296875 -0.804688 0.296875 -0.921875 C 0.296875 -1.023438 0.332031 -1.113281 0.40625 -1.1875 C 0.476562 -1.257812 0.566406 -1.296875 0.671875 -1.296875 C 0.753906 -1.296875 0.828125 -1.269531 0.890625 -1.21875 C 1.109375 -1.019531 1.328125 -0.875 1.546875 -0.78125 C 1.765625 -0.6875 2.019531 -0.640625 2.3125 -0.640625 C 2.632812 -0.640625 2.910156 -0.71875 3.140625 -0.875 C 3.367188 -1.03125 3.484375 -1.222656 3.484375 -1.453125 C 3.484375 -1.722656 3.367188 -1.929688 3.140625 -2.078125 C 2.921875 -2.234375 2.582031 -2.359375 2.125 -2.453125 C 1.582031 -2.566406 1.164062 -2.75 0.875 -3 C 0.582031 -3.25 0.4375 -3.597656 0.4375 -4.046875 C 0.4375 -4.359375 0.515625 -4.628906 0.671875 -4.859375 C 0.835938 -5.097656 1.066406 -5.28125 1.359375 -5.40625 C 1.648438 -5.53125 1.976562 -5.59375 2.34375 -5.59375 C 2.664062 -5.59375 2.96875 -5.539062 3.25 -5.4375 C 3.539062 -5.332031 3.78125 -5.191406 3.96875 -5.015625 C 4.082031 -4.910156 4.140625 -4.796875 4.140625 -4.671875 C 4.140625 -4.578125 4.101562 -4.492188 4.03125 -4.421875 C 3.957031 -4.347656 3.875 -4.3125 3.78125 -4.3125 C 3.707031 -4.3125 3.644531 -4.332031 3.59375 -4.375 C 3.457031 -4.507812 3.269531 -4.625 3.03125 -4.71875 C 2.789062 -4.8125 2.5625 -4.859375 2.34375 -4.859375 C 1.988281 -4.859375 1.707031 -4.785156 1.5 -4.640625 C 1.289062 -4.503906 1.1875 -4.316406 1.1875 -4.078125 C 1.1875 -3.816406 1.289062 -3.617188 1.5 -3.484375 C 1.707031 -3.347656 2.015625 -3.234375 2.421875 -3.140625 C 2.835938 -3.054688 3.171875 -2.953125 3.421875 -2.828125 C 3.679688 -2.703125 3.882812 -2.53125 4.03125 -2.3125 C 4.175781 -2.101562 4.25 -1.828125 4.25 -1.484375 C 4.25 -1.179688 4.160156 -0.910156 3.984375 -0.671875 C 3.816406 -0.429688 3.582031 -0.242188 3.28125 -0.109375 C 2.988281 0.015625 2.671875 0.078125 2.328125 0.078125 Z M 2.328125 0.078125 "/></g></g></g><g fill="#025f8e" fill-opacity="1"><g transform="translate(78.760225, 78.038222)"><g><path d="M 3.765625 -0.71875 C 3.878906 -0.71875 3.972656 -0.679688 4.046875 -0.609375 C 4.117188 -0.535156 4.15625 -0.453125 4.15625 -0.359375 C 4.15625 -0.253906 4.117188 -0.164062 4.046875 -0.09375 C 3.972656 -0.03125 3.878906 0 3.765625 0 L 1.03125 0 C 0.925781 0 0.835938 -0.0351562 0.765625 -0.109375 C 0.691406 -0.179688 0.65625 -0.269531 0.65625 -0.375 L 0.65625 -5.140625 C 0.65625 -5.242188 0.691406 -5.332031 0.765625 -5.40625 C 0.835938 -5.476562 0.925781 -5.515625 1.03125 -5.515625 L 3.765625 -5.515625 C 3.878906 -5.515625 3.972656 -5.476562 4.046875 -5.40625 C 4.117188 -5.34375 4.15625 -5.253906 4.15625 -5.140625 C 4.15625 -5.035156 4.117188 -4.945312 4.046875 -4.875 C 3.972656 -4.8125 3.878906 -4.78125 3.765625 -4.78125 L 1.4375 -4.78125 L 1.4375 -3.1875 L 3.421875 -3.1875 C 3.523438 -3.1875 3.613281 -3.148438 3.6875 -3.078125 C 3.757812 -3.015625 3.796875 -2.925781 3.796875 -2.8125 C 3.796875 -2.707031 3.757812 -2.625 3.6875 -2.5625 C 3.613281 -2.5 3.523438 -2.46875 3.421875 -2.46875 L 1.4375 -2.46875 L 1.4375 -0.71875 Z M 3.765625 -0.71875 "/></g></g></g><g fill="#025f8e" fill-opacity="1"><g transform="translate(83.98622, 78.038222)"><g><path d="M 4.84375 -0.625 C 4.90625 -0.59375 4.953125 -0.546875 4.984375 -0.484375 C 5.015625 -0.429688 5.03125 -0.378906 5.03125 -0.328125 C 5.03125 -0.210938 4.992188 -0.128906 4.921875 -0.078125 C 4.847656 -0.0234375 4.757812 0 4.65625 0 C 4.5625 0 4.476562 -0.0195312 4.40625 -0.0625 C 4.25 -0.15625 4.117188 -0.300781 4.015625 -0.5 C 3.921875 -0.695312 3.875 -0.988281 3.875 -1.375 C 3.875 -1.632812 3.796875 -1.828125 3.640625 -1.953125 C 3.484375 -2.085938 3.28125 -2.15625 3.03125 -2.15625 L 1.4375 -2.15625 L 1.4375 -0.375 C 1.4375 -0.269531 1.40625 -0.179688 1.34375 -0.109375 C 1.28125 -0.0351562 1.195312 0 1.09375 0 C 0.96875 0 0.863281 -0.0351562 0.78125 -0.109375 C 0.695312 -0.179688 0.65625 -0.269531 0.65625 -0.375 L 0.65625 -5.140625 C 0.65625 -5.242188 0.691406 -5.332031 0.765625 -5.40625 C 0.835938 -5.476562 0.925781 -5.515625 1.03125 -5.515625 L 3.25 -5.515625 C 3.53125 -5.515625 3.785156 -5.441406 4.015625 -5.296875 C 4.253906 -5.160156 4.441406 -4.96875 4.578125 -4.71875 C 4.722656 -4.476562 4.796875 -4.207031 4.796875 -3.90625 C 4.796875 -3.613281 4.71875 -3.335938 4.5625 -3.078125 C 4.40625 -2.828125 4.207031 -2.640625 3.96875 -2.515625 C 4.15625 -2.410156 4.304688 -2.269531 4.421875 -2.09375 C 4.535156 -1.914062 4.597656 -1.707031 4.609375 -1.46875 C 4.628906 -1.175781 4.648438 -0.972656 4.671875 -0.859375 C 4.703125 -0.753906 4.757812 -0.675781 4.84375 -0.625 Z M 3.234375 -2.796875 C 3.359375 -2.804688 3.476562 -2.859375 3.59375 -2.953125 C 3.71875 -3.054688 3.816406 -3.1875 3.890625 -3.34375 C 3.960938 -3.5 4 -3.675781 4 -3.875 C 4 -4.132812 3.921875 -4.347656 3.765625 -4.515625 C 3.609375 -4.691406 3.421875 -4.78125 3.203125 -4.78125 L 1.4375 -4.78125 L 1.4375 -2.796875 Z M 3.234375 -2.796875 "/></g></g></g><g fill="#025f8e" fill-opacity="1"><g transform="translate(90.079252, 78.038222)"><g><path d="M 4.65625 -5.515625 C 4.757812 -5.515625 4.847656 -5.476562 4.921875 -5.40625 C 5.003906 -5.34375 5.046875 -5.265625 5.046875 -5.171875 C 5.046875 -5.117188 5.035156 -5.0625 5.015625 -5 L 3 -0.25 C 2.957031 -0.164062 2.898438 -0.101562 2.828125 -0.0625 C 2.765625 -0.0195312 2.695312 0 2.625 0 C 2.5625 -0.0078125 2.5 -0.03125 2.4375 -0.0625 C 2.375 -0.101562 2.328125 -0.160156 2.296875 -0.234375 L 0.28125 -5 C 0.257812 -5.039062 0.25 -5.09375 0.25 -5.15625 C 0.25 -5.269531 0.285156 -5.359375 0.359375 -5.421875 C 0.441406 -5.492188 0.53125 -5.53125 0.625 -5.53125 C 0.78125 -5.53125 0.894531 -5.445312 0.96875 -5.28125 L 2.6875 -1.21875 L 4.3125 -5.28125 C 4.351562 -5.351562 4.398438 -5.410156 4.453125 -5.453125 C 4.515625 -5.492188 4.582031 -5.515625 4.65625 -5.515625 Z M 4.65625 -5.515625 "/></g></g></g><g fill="#025f8e" fill-opacity="1"><g transform="translate(96.109229, 78.038222)"><g><path d="M 1.4375 -0.390625 C 1.4375 -0.273438 1.394531 -0.179688 1.3125 -0.109375 C 1.238281 -0.0351562 1.148438 0 1.046875 0 C 0.921875 0 0.820312 -0.0351562 0.75 -0.109375 C 0.6875 -0.179688 0.65625 -0.273438 0.65625 -0.390625 L 0.65625 -5.140625 C 0.65625 -5.242188 0.691406 -5.332031 0.765625 -5.40625 C 0.835938 -5.476562 0.929688 -5.515625 1.046875 -5.515625 C 1.148438 -5.515625 1.238281 -5.476562 1.3125 -5.40625 C 1.394531 -5.332031 1.4375 -5.242188 1.4375 -5.140625 Z M 1.4375 -0.390625 "/></g></g></g><g fill="#025f8e" fill-opacity="1"><g transform="translate(98.931166, 78.038222)"><g><path d="M 4.578125 -5.1875 C 4.703125 -5.125 4.765625 -5.019531 4.765625 -4.875 C 4.765625 -4.78125 4.734375 -4.691406 4.671875 -4.609375 C 4.609375 -4.523438 4.523438 -4.484375 4.421875 -4.484375 C 4.347656 -4.484375 4.273438 -4.503906 4.203125 -4.546875 C 3.878906 -4.722656 3.53125 -4.8125 3.15625 -4.8125 C 2.757812 -4.8125 2.410156 -4.722656 2.109375 -4.546875 C 1.804688 -4.378906 1.570312 -4.140625 1.40625 -3.828125 C 1.238281 -3.515625 1.15625 -3.15625 1.15625 -2.75 C 1.15625 -2.320312 1.238281 -1.945312 1.40625 -1.625 C 1.582031 -1.3125 1.820312 -1.070312 2.125 -0.90625 C 2.425781 -0.738281 2.769531 -0.65625 3.15625 -0.65625 C 3.539062 -0.65625 3.890625 -0.75 4.203125 -0.9375 C 4.265625 -0.976562 4.332031 -1 4.40625 -1 C 4.519531 -1 4.613281 -0.953125 4.6875 -0.859375 C 4.75 -0.773438 4.78125 -0.691406 4.78125 -0.609375 C 4.78125 -0.546875 4.757812 -0.484375 4.71875 -0.421875 C 4.6875 -0.367188 4.644531 -0.328125 4.59375 -0.296875 C 4.382812 -0.179688 4.148438 -0.0859375 3.890625 -0.015625 C 3.640625 0.046875 3.394531 0.078125 3.15625 0.078125 C 2.644531 0.078125 2.175781 -0.03125 1.75 -0.25 C 1.320312 -0.476562 0.976562 -0.804688 0.71875 -1.234375 C 0.46875 -1.671875 0.34375 -2.175781 0.34375 -2.75 C 0.34375 -3.28125 0.460938 -3.757812 0.703125 -4.1875 C 0.953125 -4.613281 1.289062 -4.945312 1.71875 -5.1875 C 2.144531 -5.4375 2.625 -5.5625 3.15625 -5.5625 C 3.65625 -5.5625 4.128906 -5.4375 4.578125 -5.1875 Z M 4.578125 -5.1875 "/></g></g></g><g fill="#025f8e" fill-opacity="1"><g transform="translate(104.693148, 78.038222)"><g><path d="M 3.765625 -0.71875 C 3.878906 -0.71875 3.972656 -0.679688 4.046875 -0.609375 C 4.117188 -0.535156 4.15625 -0.453125 4.15625 -0.359375 C 4.15625 -0.253906 4.117188 -0.164062 4.046875 -0.09375 C 3.972656 -0.03125 3.878906 0 3.765625 0 L 1.03125 0 C 0.925781 0 0.835938 -0.0351562 0.765625 -0.109375 C 0.691406 -0.179688 0.65625 -0.269531 0.65625 -0.375 L 0.65625 -5.140625 C 0.65625 -5.242188 0.691406 -5.332031 0.765625 -5.40625 C 0.835938 -5.476562 0.925781 -5.515625 1.03125 -5.515625 L 3.765625 -5.515625 C 3.878906 -5.515625 3.972656 -5.476562 4.046875 -5.40625 C 4.117188 -5.34375 4.15625 -5.253906 4.15625 -5.140625 C 4.15625 -5.035156 4.117188 -4.945312 4.046875 -4.875 C 3.972656 -4.8125 3.878906 -4.78125 3.765625 -4.78125 L 1.4375 -4.78125 L 1.4375 -3.1875 L 3.421875 -3.1875 C 3.523438 -3.1875 3.613281 -3.148438 3.6875 -3.078125 C 3.757812 -3.015625 3.796875 -2.925781 3.796875 -2.8125 C 3.796875 -2.707031 3.757812 -2.625 3.6875 -2.5625 C 3.613281 -2.5 3.523438 -2.46875 3.421875 -2.46875 L 1.4375 -2.46875 L 1.4375 -0.71875 Z M 3.765625 -0.71875 "/></g></g></g><g fill="#025f8e" fill-opacity="1"><g transform="translate(109.919145, 78.038222)"><g/></g></g><g fill="#025f8e" fill-opacity="1"><g transform="translate(112.835669, 78.038222)"><g><path d="M 2.859375 -5.515625 C 3.140625 -5.515625 3.394531 -5.4375 3.625 -5.28125 C 3.863281 -5.132812 4.050781 -4.929688 4.1875 -4.671875 C 4.332031 -4.421875 4.40625 -4.140625 4.40625 -3.828125 C 4.40625 -3.515625 4.332031 -3.226562 4.1875 -2.96875 C 4.050781 -2.707031 3.863281 -2.5 3.625 -2.34375 C 3.394531 -2.195312 3.140625 -2.125 2.859375 -2.125 L 1.375 -2.125 L 1.375 -0.375 C 1.375 -0.269531 1.335938 -0.179688 1.265625 -0.109375 C 1.203125 -0.0351562 1.117188 0 1.015625 0 C 0.898438 0 0.8125 -0.0351562 0.75 -0.109375 C 0.6875 -0.179688 0.65625 -0.269531 0.65625 -0.375 L 0.65625 -5.140625 C 0.65625 -5.242188 0.691406 -5.332031 0.765625 -5.40625 C 0.835938 -5.476562 0.925781 -5.515625 1.03125 -5.515625 Z M 2.859375 -2.828125 C 3.003906 -2.828125 3.132812 -2.875 3.25 -2.96875 C 3.375 -3.0625 3.46875 -3.179688 3.53125 -3.328125 C 3.601562 -3.484375 3.640625 -3.648438 3.640625 -3.828125 C 3.640625 -4.097656 3.5625 -4.320312 3.40625 -4.5 C 3.257812 -4.6875 3.078125 -4.78125 2.859375 -4.78125 L 1.375 -4.78125 L 1.375 -2.828125 Z M 2.859375 -2.828125 "/></g></g></g><g fill="#025f8e" fill-opacity="1"><g transform="translate(118.298125, 78.038222)"><g><path d="M 5.65625 -2.75 C 5.65625 -2.21875 5.539062 -1.738281 5.3125 -1.3125 C 5.09375 -0.882812 4.78125 -0.546875 4.375 -0.296875 C 3.96875 -0.046875 3.507812 0.078125 3 0.078125 C 2.488281 0.078125 2.03125 -0.046875 1.625 -0.296875 C 1.226562 -0.546875 0.914062 -0.882812 0.6875 -1.3125 C 0.457031 -1.738281 0.34375 -2.21875 0.34375 -2.75 C 0.34375 -3.28125 0.457031 -3.757812 0.6875 -4.1875 C 0.914062 -4.625 1.226562 -4.96875 1.625 -5.21875 C 2.03125 -5.46875 2.488281 -5.59375 3 -5.59375 C 3.507812 -5.59375 3.96875 -5.46875 4.375 -5.21875 C 4.78125 -4.96875 5.09375 -4.625 5.3125 -4.1875 C 5.539062 -3.757812 5.65625 -3.28125 5.65625 -2.75 Z M 4.84375 -2.75 C 4.84375 -3.144531 4.765625 -3.5 4.609375 -3.8125 C 4.453125 -4.132812 4.234375 -4.382812 3.953125 -4.5625 C 3.671875 -4.75 3.351562 -4.84375 3 -4.84375 C 2.644531 -4.84375 2.328125 -4.753906 2.046875 -4.578125 C 1.765625 -4.398438 1.546875 -4.148438 1.390625 -3.828125 C 1.234375 -3.515625 1.15625 -3.15625 1.15625 -2.75 C 1.15625 -2.363281 1.234375 -2.007812 1.390625 -1.6875 C 1.546875 -1.375 1.765625 -1.125 2.046875 -0.9375 C 2.328125 -0.757812 2.644531 -0.671875 3 -0.671875 C 3.351562 -0.671875 3.671875 -0.757812 3.953125 -0.9375 C 4.234375 -1.125 4.453125 -1.375 4.609375 -1.6875 C 4.765625 -2.007812 4.84375 -2.363281 4.84375 -2.75 Z M 4.84375 -2.75 "/></g></g></g><g fill="#025f8e" fill-opacity="1"><g transform="translate(125.037495, 78.038222)"><g><path d="M 1.4375 -0.390625 C 1.4375 -0.273438 1.394531 -0.179688 1.3125 -0.109375 C 1.238281 -0.0351562 1.148438 0 1.046875 0 C 0.921875 0 0.820312 -0.0351562 0.75 -0.109375 C 0.6875 -0.179688 0.65625 -0.273438 0.65625 -0.390625 L 0.65625 -5.140625 C 0.65625 -5.242188 0.691406 -5.332031 0.765625 -5.40625 C 0.835938 -5.476562 0.929688 -5.515625 1.046875 -5.515625 C 1.148438 -5.515625 1.238281 -5.476562 1.3125 -5.40625 C 1.394531 -5.332031 1.4375 -5.242188 1.4375 -5.140625 Z M 1.4375 -0.390625 "/></g></g></g><g fill="#025f8e" fill-opacity="1"><g transform="translate(127.859432, 78.038222)"><g><path d="M 4.765625 -5.515625 C 4.867188 -5.515625 4.953125 -5.476562 5.015625 -5.40625 C 5.078125 -5.34375 5.109375 -5.265625 5.109375 -5.171875 L 5.109375 -0.390625 C 5.109375 -0.273438 5.070312 -0.179688 5 -0.109375 C 4.925781 -0.0351562 4.835938 0 4.734375 0 C 4.671875 0 4.613281 -0.0078125 4.5625 -0.03125 C 4.507812 -0.0507812 4.46875 -0.078125 4.4375 -0.109375 L 1.34375 -4.140625 L 1.34375 -0.34375 C 1.34375 -0.25 1.304688 -0.164062 1.234375 -0.09375 C 1.171875 -0.03125 1.09375 0 1 0 C 0.894531 0 0.8125 -0.03125 0.75 -0.09375 C 0.6875 -0.164062 0.65625 -0.25 0.65625 -0.34375 L 0.65625 -5.140625 C 0.65625 -5.242188 0.6875 -5.332031 0.75 -5.40625 C 0.820312 -5.476562 0.914062 -5.515625 1.03125 -5.515625 C 1.09375 -5.515625 1.148438 -5.5 1.203125 -5.46875 C 1.265625 -5.445312 1.3125 -5.414062 1.34375 -5.375 L 4.421875 -1.34375 L 4.421875 -5.171875 C 4.421875 -5.265625 4.453125 -5.34375 4.515625 -5.40625 C 4.585938 -5.476562 4.671875 -5.515625 4.765625 -5.515625 Z M 4.765625 -5.515625 "/></g></g></g><g fill="#025f8e" fill-opacity="1"><g transform="translate(134.362335, 78.038222)"><g><path d="M 4.234375 -5.515625 C 4.335938 -5.515625 4.425781 -5.476562 4.5 -5.40625 C 4.570312 -5.34375 4.609375 -5.257812 4.609375 -5.15625 C 4.609375 -5.039062 4.570312 -4.953125 4.5 -4.890625 C 4.425781 -4.828125 4.335938 -4.796875 4.234375 -4.796875 L 2.828125 -4.796875 L 2.828125 -0.375 C 2.828125 -0.269531 2.785156 -0.179688 2.703125 -0.109375 C 2.628906 -0.0351562 2.535156 0 2.421875 0 C 2.304688 0 2.210938 -0.0351562 2.140625 -0.109375 C 2.066406 -0.179688 2.03125 -0.269531 2.03125 -0.375 L 2.03125 -4.796875 L 0.625 -4.796875 C 0.519531 -4.796875 0.429688 -4.828125 0.359375 -4.890625 C 0.285156 -4.960938 0.25 -5.050781 0.25 -5.15625 C 0.25 -5.257812 0.285156 -5.34375 0.359375 -5.40625 C 0.429688 -5.476562 0.519531 -5.515625 0.625 -5.515625 Z M 4.234375 -5.515625 "/></g></g></g><g fill="#00adef" fill-opacity="1"><g transform="translate(65.602992, 82.902543)"><g/></g></g><g fill="#00adef" fill-opacity="1"><g transform="translate(67.311025, 82.902543)"><g><path d="M 0.738281 -1.734375 L 0.730469 -2.09375 L 0.375 -2.09375 L 0.375 0 L 0.742188 0 L 0.742188 -1.117188 C 0.742188 -1.585938 0.988281 -1.769531 1.394531 -1.769531 L 1.394531 -2.117188 C 1.101562 -2.113281 0.847656 -1.957031 0.738281 -1.734375 Z M 0.738281 -1.734375 "/></g></g></g><g fill="#00adef" fill-opacity="1"><g transform="translate(69.337643, 82.902543)"><g><path d="M 2.207031 -1.085938 C 2.207031 -1.789062 1.796875 -2.136719 1.238281 -2.136719 C 0.648438 -2.136719 0.207031 -1.730469 0.207031 -1.046875 C 0.207031 -0.363281 0.636719 0.0429688 1.246094 0.0429688 C 1.664062 0.0429688 2.007812 -0.191406 2.160156 -0.574219 L 1.828125 -0.644531 C 1.71875 -0.410156 1.5 -0.265625 1.242188 -0.265625 C 0.882812 -0.265625 0.578125 -0.503906 0.566406 -0.988281 L 2.199219 -0.988281 Z M 1.238281 -1.851562 C 1.5625 -1.851562 1.804688 -1.660156 1.835938 -1.269531 L 0.582031 -1.269531 C 0.644531 -1.660156 0.902344 -1.851562 1.238281 -1.851562 Z M 1.238281 -1.851562 "/></g></g></g><g fill="#00adef" fill-opacity="1"><g transform="translate(72.319613, 82.902543)"><g><path d="M 1.480469 -2.132812 C 1.152344 -2.132812 0.871094 -1.957031 0.738281 -1.6875 L 0.730469 -2.09375 L 0.375 -2.09375 L 0.375 1.074219 L 0.742188 1.074219 L 0.742188 -0.394531 C 0.875 -0.128906 1.15625 0.0429688 1.480469 0.0429688 C 2.015625 0.0429688 2.457031 -0.375 2.457031 -1.046875 C 2.457031 -1.714844 2.015625 -2.132812 1.480469 -2.132812 Z M 1.40625 -0.273438 C 1.019531 -0.273438 0.714844 -0.605469 0.714844 -1.046875 C 0.714844 -1.484375 1.019531 -1.8125 1.40625 -1.8125 C 1.777344 -1.8125 2.089844 -1.519531 2.089844 -1.046875 C 2.089844 -0.566406 1.777344 -0.273438 1.40625 -0.273438 Z M 1.40625 -0.273438 "/></g></g></g><g fill="#00adef" fill-opacity="1"><g transform="translate(75.55691, 82.902543)"><g><path d="M 0.859375 0.0390625 C 1.113281 0.0390625 1.371094 -0.0507812 1.542969 -0.28125 L 1.558594 -0.28125 C 1.601562 -0.0859375 1.742188 0 1.957031 0 L 2.140625 0 L 2.140625 -0.265625 L 2.105469 -0.265625 C 1.957031 -0.265625 1.890625 -0.316406 1.890625 -0.539062 L 1.890625 -1.40625 C 1.890625 -1.953125 1.507812 -2.128906 1.089844 -2.128906 C 0.625 -2.128906 0.320312 -1.933594 0.257812 -1.53125 L 0.589844 -1.460938 C 0.625 -1.738281 0.828125 -1.851562 1.074219 -1.851562 C 1.3125 -1.851562 1.535156 -1.742188 1.535156 -1.4375 C 1.535156 -1.332031 1.476562 -1.269531 1.347656 -1.246094 L 1.011719 -1.191406 C 0.554688 -1.113281 0.21875 -0.964844 0.21875 -0.53125 C 0.21875 -0.132812 0.511719 0.0390625 0.859375 0.0390625 Z M 0.941406 -0.257812 C 0.742188 -0.257812 0.578125 -0.34375 0.578125 -0.5625 C 0.578125 -0.769531 0.730469 -0.859375 1.007812 -0.90625 L 1.5625 -1.011719 C 1.5625 -0.539062 1.308594 -0.257812 0.941406 -0.257812 Z M 0.941406 -0.257812 "/></g></g></g><g fill="#00adef" fill-opacity="1"><g transform="translate(78.415471, 82.902543)"><g><path d="M 0.5625 -2.582031 C 0.695312 -2.582031 0.808594 -2.695312 0.808594 -2.832031 C 0.808594 -2.96875 0.695312 -3.078125 0.5625 -3.078125 C 0.425781 -3.078125 0.3125 -2.96875 0.3125 -2.832031 C 0.3125 -2.695312 0.425781 -2.582031 0.5625 -2.582031 Z M 0.375 0 L 0.746094 0 L 0.746094 -2.09375 L 0.375 -2.09375 Z M 0.375 0 "/></g></g></g><g fill="#00adef" fill-opacity="1"><g transform="translate(80.110164, 82.902543)"><g><path d="M 0.738281 -1.734375 L 0.730469 -2.09375 L 0.375 -2.09375 L 0.375 0 L 0.742188 0 L 0.742188 -1.117188 C 0.742188 -1.585938 0.988281 -1.769531 1.394531 -1.769531 L 1.394531 -2.117188 C 1.101562 -2.113281 0.847656 -1.957031 0.738281 -1.734375 Z M 0.738281 -1.734375 "/></g></g></g><g fill="#00adef" fill-opacity="1"><g transform="translate(82.136783, 82.902543)"><g/></g></g><g fill="#00adef" fill-opacity="1"><g transform="translate(83.844243, 82.902543)"><g><path d="M 0.859375 0.0390625 C 1.113281 0.0390625 1.371094 -0.0507812 1.542969 -0.28125 L 1.558594 -0.28125 C 1.601562 -0.0859375 1.742188 0 1.957031 0 L 2.140625 0 L 2.140625 -0.265625 L 2.105469 -0.265625 C 1.957031 -0.265625 1.890625 -0.316406 1.890625 -0.539062 L 1.890625 -1.40625 C 1.890625 -1.953125 1.507812 -2.128906 1.089844 -2.128906 C 0.625 -2.128906 0.320312 -1.933594 0.257812 -1.53125 L 0.589844 -1.460938 C 0.625 -1.738281 0.828125 -1.851562 1.074219 -1.851562 C 1.3125 -1.851562 1.535156 -1.742188 1.535156 -1.4375 C 1.535156 -1.332031 1.476562 -1.269531 1.347656 -1.246094 L 1.011719 -1.191406 C 0.554688 -1.113281 0.21875 -0.964844 0.21875 -0.53125 C 0.21875 -0.132812 0.511719 0.0390625 0.859375 0.0390625 Z M 0.941406 -0.257812 C 0.742188 -0.257812 0.578125 -0.34375 0.578125 -0.5625 C 0.578125 -0.769531 0.730469 -0.859375 1.007812 -0.90625 L 1.5625 -1.011719 C 1.5625 -0.539062 1.308594 -0.257812 0.941406 -0.257812 Z M 0.941406 -0.257812 "/></g></g></g><g fill="#00adef" fill-opacity="1"><g transform="translate(86.702804, 82.902543)"><g><path d="M 1.363281 -2.132812 C 1.09375 -2.132812 0.875 -2.019531 0.742188 -1.824219 L 0.742188 -2.09375 L 0.375 -2.09375 L 0.375 0 L 0.742188 0 L 0.742188 -1.25 C 0.746094 -1.644531 0.976562 -1.820312 1.261719 -1.820312 C 1.507812 -1.820312 1.71875 -1.683594 1.71875 -1.324219 L 1.71875 0 L 2.085938 0 L 2.085938 -1.410156 C 2.085938 -1.878906 1.792969 -2.132812 1.363281 -2.132812 Z M 1.363281 -2.132812 "/></g></g></g><g fill="#00adef" fill-opacity="1"><g transform="translate(89.699667, 82.902543)"><g><path d="M 1.917969 -3.269531 L 1.917969 -1.695312 C 1.785156 -1.960938 1.507812 -2.132812 1.183594 -2.132812 C 0.648438 -2.132812 0.203125 -1.703125 0.203125 -1.046875 C 0.203125 -0.382812 0.648438 0.0429688 1.183594 0.0429688 C 1.511719 0.0429688 1.792969 -0.128906 1.925781 -0.40625 L 1.933594 0 L 2.289062 0 L 2.289062 -3.269531 Z M 1.261719 -0.273438 C 0.878906 -0.273438 0.574219 -0.578125 0.574219 -1.046875 C 0.574219 -1.511719 0.878906 -1.816406 1.261719 -1.816406 C 1.640625 -1.816406 1.941406 -1.484375 1.941406 -1.046875 C 1.941406 -0.605469 1.644531 -0.273438 1.261719 -0.273438 Z M 1.261719 -0.273438 "/></g></g></g><g fill="#00adef" fill-opacity="1"><g transform="translate(92.936964, 82.902543)"><g/></g></g><g fill="#00adef" fill-opacity="1"><g transform="translate(94.644424, 82.902543)"><g><path d="M 2.515625 -2.132812 C 2.246094 -2.132812 2.03125 -2.011719 1.90625 -1.789062 C 1.800781 -2.015625 1.582031 -2.132812 1.316406 -2.132812 C 1.066406 -2.132812 0.863281 -2.019531 0.742188 -1.820312 L 0.742188 -2.09375 L 0.375 -2.09375 L 0.375 0 L 0.742188 0 L 0.742188 -1.28125 C 0.742188 -1.660156 0.9375 -1.820312 1.183594 -1.820312 C 1.410156 -1.820312 1.597656 -1.675781 1.597656 -1.34375 L 1.597656 0 L 1.972656 0 L 1.972656 -1.292969 C 1.972656 -1.660156 2.160156 -1.820312 2.410156 -1.820312 C 2.628906 -1.820312 2.816406 -1.679688 2.816406 -1.359375 L 2.816406 0 L 3.1875 0 L 3.1875 -1.457031 C 3.1875 -1.894531 2.90625 -2.132812 2.515625 -2.132812 Z M 2.515625 -2.132812 "/></g></g></g><g fill="#00adef" fill-opacity="1"><g transform="translate(98.743447, 82.902543)"><g><path d="M 0.859375 0.0390625 C 1.113281 0.0390625 1.371094 -0.0507812 1.542969 -0.28125 L 1.558594 -0.28125 C 1.601562 -0.0859375 1.742188 0 1.957031 0 L 2.140625 0 L 2.140625 -0.265625 L 2.105469 -0.265625 C 1.957031 -0.265625 1.890625 -0.316406 1.890625 -0.539062 L 1.890625 -1.40625 C 1.890625 -1.953125 1.507812 -2.128906 1.089844 -2.128906 C 0.625 -2.128906 0.320312 -1.933594 0.257812 -1.53125 L 0.589844 -1.460938 C 0.625 -1.738281 0.828125 -1.851562 1.074219 -1.851562 C 1.3125 -1.851562 1.535156 -1.742188 1.535156 -1.4375 C 1.535156 -1.332031 1.476562 -1.269531 1.347656 -1.246094 L 1.011719 -1.191406 C 0.554688 -1.113281 0.21875 -0.964844 0.21875 -0.53125 C 0.21875 -0.132812 0.511719 0.0390625 0.859375 0.0390625 Z M 0.941406 -0.257812 C 0.742188 -0.257812 0.578125 -0.34375 0.578125 -0.5625 C 0.578125 -0.769531 0.730469 -0.859375 1.007812 -0.90625 L 1.5625 -1.011719 C 1.5625 -0.539062 1.308594 -0.257812 0.941406 -0.257812 Z M 0.941406 -0.257812 "/></g></g></g><g fill="#00adef" fill-opacity="1"><g transform="translate(101.602009, 82.902543)"><g><path d="M 0.5625 -2.582031 C 0.695312 -2.582031 0.808594 -2.695312 0.808594 -2.832031 C 0.808594 -2.96875 0.695312 -3.078125 0.5625 -3.078125 C 0.425781 -3.078125 0.3125 -2.96875 0.3125 -2.832031 C 0.3125 -2.695312 0.425781 -2.582031 0.5625 -2.582031 Z M 0.375 0 L 0.746094 0 L 0.746094 -2.09375 L 0.375 -2.09375 Z M 0.375 0 "/></g></g></g><g fill="#00adef" fill-opacity="1"><g transform="translate(103.296702, 82.902543)"><g><path d="M 1.363281 -2.132812 C 1.09375 -2.132812 0.875 -2.019531 0.742188 -1.824219 L 0.742188 -2.09375 L 0.375 -2.09375 L 0.375 0 L 0.742188 0 L 0.742188 -1.25 C 0.746094 -1.644531 0.976562 -1.820312 1.261719 -1.820312 C 1.507812 -1.820312 1.71875 -1.683594 1.71875 -1.324219 L 1.71875 0 L 2.085938 0 L 2.085938 -1.410156 C 2.085938 -1.878906 1.792969 -2.132812 1.363281 -2.132812 Z M 1.363281 -2.132812 "/></g></g></g><g fill="#00adef" fill-opacity="1"><g transform="translate(106.293565, 82.902543)"><g><path d="M 1.042969 0 L 1.335938 0 L 1.335938 -0.292969 L 1.144531 -0.292969 C 0.976562 -0.292969 0.855469 -0.402344 0.855469 -0.605469 L 0.855469 -1.796875 L 1.335938 -1.796875 L 1.335938 -2.09375 L 0.855469 -2.09375 L 0.855469 -2.789062 L 0.511719 -2.789062 L 0.511719 -2.410156 C 0.511719 -2.183594 0.433594 -2.09375 0.214844 -2.09375 L 0.0585938 -2.09375 L 0.0585938 -1.796875 L 0.484375 -1.796875 L 0.484375 -0.566406 C 0.484375 -0.207031 0.699219 0 1.042969 0 Z M 1.042969 0 "/></g></g></g><g fill="#00adef" fill-opacity="1"><g transform="translate(108.362738, 82.902543)"><g><path d="M 2.207031 -1.085938 C 2.207031 -1.789062 1.796875 -2.136719 1.238281 -2.136719 C 0.648438 -2.136719 0.207031 -1.730469 0.207031 -1.046875 C 0.207031 -0.363281 0.636719 0.0429688 1.246094 0.0429688 C 1.664062 0.0429688 2.007812 -0.191406 2.160156 -0.574219 L 1.828125 -0.644531 C 1.71875 -0.410156 1.5 -0.265625 1.242188 -0.265625 C 0.882812 -0.265625 0.578125 -0.503906 0.566406 -0.988281 L 2.199219 -0.988281 Z M 1.238281 -1.851562 C 1.5625 -1.851562 1.804688 -1.660156 1.835938 -1.269531 L 0.582031 -1.269531 C 0.644531 -1.660156 0.902344 -1.851562 1.238281 -1.851562 Z M 1.238281 -1.851562 "/></g></g></g><g fill="#00adef" fill-opacity="1"><g transform="translate(111.344708, 82.902543)"><g><path d="M 1.363281 -2.132812 C 1.09375 -2.132812 0.875 -2.019531 0.742188 -1.824219 L 0.742188 -2.09375 L 0.375 -2.09375 L 0.375 0 L 0.742188 0 L 0.742188 -1.25 C 0.746094 -1.644531 0.976562 -1.820312 1.261719 -1.820312 C 1.507812 -1.820312 1.71875 -1.683594 1.71875 -1.324219 L 1.71875 0 L 2.085938 0 L 2.085938 -1.410156 C 2.085938 -1.878906 1.792969 -2.132812 1.363281 -2.132812 Z M 1.363281 -2.132812 "/></g></g></g><g fill="#00adef" fill-opacity="1"><g transform="translate(114.34157, 82.902543)"><g><path d="M 0.859375 0.0390625 C 1.113281 0.0390625 1.371094 -0.0507812 1.542969 -0.28125 L 1.558594 -0.28125 C 1.601562 -0.0859375 1.742188 0 1.957031 0 L 2.140625 0 L 2.140625 -0.265625 L 2.105469 -0.265625 C 1.957031 -0.265625 1.890625 -0.316406 1.890625 -0.539062 L 1.890625 -1.40625 C 1.890625 -1.953125 1.507812 -2.128906 1.089844 -2.128906 C 0.625 -2.128906 0.320312 -1.933594 0.257812 -1.53125 L 0.589844 -1.460938 C 0.625 -1.738281 0.828125 -1.851562 1.074219 -1.851562 C 1.3125 -1.851562 1.535156 -1.742188 1.535156 -1.4375 C 1.535156 -1.332031 1.476562 -1.269531 1.347656 -1.246094 L 1.011719 -1.191406 C 0.554688 -1.113281 0.21875 -0.964844 0.21875 -0.53125 C 0.21875 -0.132812 0.511719 0.0390625 0.859375 0.0390625 Z M 0.941406 -0.257812 C 0.742188 -0.257812 0.578125 -0.34375 0.578125 -0.5625 C 0.578125 -0.769531 0.730469 -0.859375 1.007812 -0.90625 L 1.5625 -1.011719 C 1.5625 -0.539062 1.308594 -0.257812 0.941406 -0.257812 Z M 0.941406 -0.257812 "/></g></g></g><g fill="#00adef" fill-opacity="1"><g transform="translate(117.200132, 82.902543)"><g><path d="M 1.363281 -2.132812 C 1.09375 -2.132812 0.875 -2.019531 0.742188 -1.824219 L 0.742188 -2.09375 L 0.375 -2.09375 L 0.375 0 L 0.742188 0 L 0.742188 -1.25 C 0.746094 -1.644531 0.976562 -1.820312 1.261719 -1.820312 C 1.507812 -1.820312 1.71875 -1.683594 1.71875 -1.324219 L 1.71875 0 L 2.085938 0 L 2.085938 -1.410156 C 2.085938 -1.878906 1.792969 -2.132812 1.363281 -2.132812 Z M 1.363281 -2.132812 "/></g></g></g><g fill="#00adef" fill-opacity="1"><g transform="translate(120.196994, 82.902543)"><g><path d="M 1.242188 0.0390625 C 1.699219 0.0390625 2.070312 -0.21875 2.199219 -0.652344 L 1.855469 -0.710938 C 1.757812 -0.425781 1.523438 -0.269531 1.242188 -0.269531 C 0.855469 -0.269531 0.566406 -0.574219 0.566406 -1.046875 C 0.566406 -1.519531 0.855469 -1.828125 1.242188 -1.828125 C 1.523438 -1.828125 1.757812 -1.671875 1.855469 -1.386719 L 2.199219 -1.441406 C 2.070312 -1.878906 1.703125 -2.132812 1.242188 -2.132812 C 0.644531 -2.132812 0.199219 -1.703125 0.199219 -1.046875 C 0.199219 -0.394531 0.644531 0.0390625 1.242188 0.0390625 Z M 1.242188 0.0390625 "/></g></g></g><g fill="#00adef" fill-opacity="1"><g transform="translate(123.140665, 82.902543)"><g><path d="M 2.207031 -1.085938 C 2.207031 -1.789062 1.796875 -2.136719 1.238281 -2.136719 C 0.648438 -2.136719 0.207031 -1.730469 0.207031 -1.046875 C 0.207031 -0.363281 0.636719 0.0429688 1.246094 0.0429688 C 1.664062 0.0429688 2.007812 -0.191406 2.160156 -0.574219 L 1.828125 -0.644531 C 1.71875 -0.410156 1.5 -0.265625 1.242188 -0.265625 C 0.882812 -0.265625 0.578125 -0.503906 0.566406 -0.988281 L 2.199219 -0.988281 Z M 1.238281 -1.851562 C 1.5625 -1.851562 1.804688 -1.660156 1.835938 -1.269531 L 0.582031 -1.269531 C 0.644531 -1.660156 0.902344 -1.851562 1.238281 -1.851562 Z M 1.238281 -1.851562 "/></g></g></g></svg>