<svg xmlns="http://www.w3.org/2000/svg" xmlns:xlink="http://www.w3.org/1999/xlink" width="500" zoomAndPan="magnify" viewBox="0 0 375 374.999991" height="500" preserveAspectRatio="xMidYMid meet" version="1.0"><defs><clipPath id="6c3cb1752b"><path d="M 129 10.105469 L 317 10.105469 L 317 334 L 129 334 Z M 129 10.105469 " clip-rule="nonzero"/></clipPath><clipPath id="cd7d05d42a"><path d="M 187 10.105469 L 317 10.105469 L 317 226 L 187 226 Z M 187 10.105469 " clip-rule="nonzero"/></clipPath></defs><path fill="#0d62ad" d="M 68.703125 168.367188 C 54.273438 193.820312 49.773438 221.296875 57.210938 251.21875 C 74.710938 321.601562 153.027344 385.105469 223.664062 350.097656 C 262.640625 330.78125 278.0625 283.472656 251.269531 246.835938 C 236.585938 226.75 213.097656 209.855469 187.402344 193.761719 C 154.347656 173.667969 106.214844 141.582031 111.183594 97.351562 C 92.074219 118.082031 79.089844 141.949219 94.210938 168.535156 C 105.8125 188.933594 127.613281 207.625 155.160156 225.367188 C 166.964844 234.066406 178.433594 243.113281 186.765625 255.15625 C 210.230469 289.082031 183.304688 312.046875 148.851562 308.140625 C 114.710938 304.273438 98.0625 287.621094 90.613281 264.269531 C 103.890625 274.996094 117.628906 284.921875 133.832031 289.160156 C 160.523438 296.140625 167.613281 279.625 159.941406 261.414062 C 155.886719 251.800781 148.40625 242.710938 139.347656 235.449219 C 111.207031 212.878906 93.851562 198.046875 68.703125 168.367188 " fill-opacity="1" fill-rule="evenodd"/><path fill="#034e8f" d="M 239.03125 340.082031 C 266.210938 317.332031 274.195312 278.175781 251.28125 246.835938 C 236.597656 226.75 213.109375 209.855469 187.414062 193.761719 C 154.359375 173.667969 106.226562 141.582031 111.195312 97.351562 C 99.882812 129.847656 105.34375 151.898438 129.476562 175.070312 C 159.28125 203.6875 199.074219 224.554688 225.929688 255.414062 C 245.21875 277.59375 255.367188 304.238281 239.03125 340.082031 " fill-opacity="1" fill-rule="evenodd"/><path fill="#034e8f" d="M 162.800781 275.824219 C 163.078125 271.460938 162.085938 266.5 159.929688 261.390625 C 155.875 251.777344 148.394531 242.6875 139.335938 235.429688 C 111.195312 212.867188 93.839844 198.035156 68.691406 168.367188 C 93.773438 230.65625 143.144531 231.480469 162.800781 275.824219 " fill-opacity="1" fill-rule="evenodd"/><g clip-path="url(#6c3cb1752b)"><path fill="#0098da" d="M 187.859375 10.105469 C 155.742188 34.730469 115.898438 68.578125 134.679688 108.46875 C 150.226562 141.480469 199.832031 172.195312 228.0625 195.023438 C 278.820312 236.054688 317.515625 268.886719 266.390625 333.203125 C 308.4375 293.386719 325.601562 247.460938 285.128906 199.628906 C 273.941406 186.402344 260.617188 174.058594 245.351562 162.503906 C 216.515625 140.6875 174.839844 116.476562 174.570312 75.679688 C 199.261719 113.632812 221.027344 123.4375 254.488281 147.726562 C 285.554688 170.277344 306.035156 196.363281 316.457031 225.78125 C 313.71875 192.078125 300.832031 161.746094 280.273438 133.976562 C 265.230469 113.65625 246.167969 94.820312 228.210938 75.359375 C 208.019531 53.453125 196.960938 39.75 187.859375 10.105469 " fill-opacity="1" fill-rule="evenodd"/></g><g clip-path="url(#cd7d05d42a)"><path fill="#007fb5" d="M 310.925781 212.441406 C 313.003906 216.816406 314.847656 221.253906 316.457031 225.78125 C 313.71875 192.078125 300.832031 161.746094 280.273438 133.976562 C 265.230469 113.65625 246.167969 94.820312 228.210938 75.359375 C 208.007812 53.464844 196.960938 39.757812 187.859375 10.117188 C 188.015625 31.429688 192.761719 50.109375 202.667969 68.855469 C 214.617188 91.449219 229.984375 102.816406 250.308594 121.808594 C 260.09375 130.953125 269.238281 140.699219 277.660156 151.148438 C 291.304688 168.058594 306.917969 191.253906 310.925781 212.441406 Z M 310.925781 212.441406 " fill-opacity="1" fill-rule="evenodd"/></g><path fill="#007fb5" d="M 136.757812 62.320312 C 129.175781 76.519531 126.90625 91.976562 134.667969 108.46875 C 150.214844 141.480469 199.820312 172.195312 228.054688 195.023438 C 242.558594 206.746094 256.070312 217.808594 266.792969 229.117188 C 235.679688 186.058594 184.53125 161.511719 155.699219 120.671875 C 143.4375 103.292969 136.007812 83.867188 136.757812 62.320312 " fill-opacity="1" fill-rule="evenodd"/></svg>