<svg xmlns="http://www.w3.org/2000/svg" xmlns:xlink="http://www.w3.org/1999/xlink" width="500" zoomAndPan="magnify" viewBox="0 0 375 374.999991" height="500" preserveAspectRatio="xMidYMid meet" version="1.0"><defs><g/><clipPath id="a637149461"><path d="M 168 108.589844 L 232 108.589844 L 232 219 L 168 219 Z M 168 108.589844 " clip-rule="nonzero"/></clipPath><clipPath id="50b4d65d5d"><path d="M 187 108.589844 L 232 108.589844 L 232 182 L 187 182 Z M 187 108.589844 " clip-rule="nonzero"/></clipPath></defs><rect x="-37.5" width="450" fill="#ffffff" y="-37.499999" height="449.999989" fill-opacity="1"/><rect x="-37.5" width="450" fill="#ffffff" y="-37.499999" height="449.999989" fill-opacity="1"/><path fill="#0d62ad" d="M 147.234375 162.402344 C 142.335938 171.054688 140.804688 180.398438 143.332031 190.570312 C 149.277344 214.5 175.878906 236.089844 199.871094 224.1875 C 213.109375 217.621094 218.351562 201.535156 209.25 189.082031 C 204.261719 182.25 196.285156 176.507812 187.554688 171.035156 C 176.328125 164.203125 159.976562 153.292969 161.664062 138.253906 C 155.175781 145.304688 150.761719 153.417969 155.898438 162.457031 C 159.839844 169.394531 167.246094 175.75 176.605469 181.78125 C 180.613281 184.738281 184.507812 187.8125 187.339844 191.910156 C 195.308594 203.445312 186.164062 211.25 174.460938 209.925781 C 162.863281 208.609375 157.207031 202.949219 154.679688 195.007812 C 159.1875 198.65625 163.855469 202.03125 169.359375 203.46875 C 178.425781 205.84375 180.832031 200.230469 178.226562 194.035156 C 176.851562 190.769531 174.308594 187.675781 171.234375 185.210938 C 161.671875 177.535156 155.777344 172.492188 147.234375 162.402344 " fill-opacity="1" fill-rule="evenodd"/><path fill="#034e8f" d="M 205.09375 220.785156 C 214.324219 213.046875 217.039062 199.734375 209.253906 189.082031 C 204.265625 182.25 196.289062 176.507812 187.558594 171.035156 C 176.332031 164.203125 159.980469 153.292969 161.667969 138.253906 C 157.828125 149.304688 159.683594 156.800781 167.878906 164.679688 C 178.003906 174.410156 191.519531 181.503906 200.640625 191.996094 C 207.195312 199.539062 210.640625 208.597656 205.09375 220.785156 " fill-opacity="1" fill-rule="evenodd"/><path fill="#034e8f" d="M 179.199219 198.9375 C 179.292969 197.453125 178.957031 195.765625 178.222656 194.027344 C 176.847656 190.761719 174.304688 187.671875 171.230469 185.203125 C 161.667969 177.53125 155.773438 172.488281 147.230469 162.402344 C 155.75 183.578125 172.523438 183.859375 179.199219 198.9375 " fill-opacity="1" fill-rule="evenodd"/><g clip-path="url(#a637149461)"><path fill="#0098da" d="M 187.710938 108.589844 C 176.800781 116.964844 163.265625 128.472656 169.648438 142.035156 C 174.925781 153.257812 191.777344 163.703125 201.367188 171.464844 C 218.609375 185.414062 231.75 196.578125 214.386719 218.445312 C 228.667969 204.90625 234.496094 189.292969 220.75 173.03125 C 216.949219 168.53125 212.425781 164.335938 207.238281 160.40625 C 197.445312 152.988281 183.289062 144.757812 183.195312 130.886719 C 191.582031 143.792969 198.976562 147.125 210.34375 155.382812 C 220.894531 163.050781 227.851562 171.917969 231.390625 181.921875 C 230.460938 170.460938 226.085938 160.148438 219.101562 150.707031 C 213.992188 143.796875 207.515625 137.394531 201.417969 130.777344 C 194.558594 123.332031 190.800781 118.671875 187.710938 108.589844 " fill-opacity="1" fill-rule="evenodd"/></g><g clip-path="url(#50b4d65d5d)"><path fill="#007fb5" d="M 229.511719 177.386719 C 230.21875 178.875 230.84375 180.382812 231.390625 181.921875 C 230.460938 170.460938 226.085938 160.148438 219.101562 150.707031 C 213.992188 143.796875 207.515625 137.394531 201.417969 130.777344 C 194.554688 123.335938 190.800781 118.675781 187.710938 108.59375 C 187.765625 115.839844 189.375 122.191406 192.742188 128.566406 C 196.800781 136.25 202.019531 140.113281 208.921875 146.570312 C 212.246094 149.679688 215.351562 152.992188 218.214844 156.546875 C 222.847656 162.296875 228.152344 170.183594 229.511719 177.386719 Z M 229.511719 177.386719 " fill-opacity="1" fill-rule="evenodd"/></g><path fill="#007fb5" d="M 170.351562 126.34375 C 167.777344 131.171875 167.007812 136.425781 169.644531 142.035156 C 174.921875 153.257812 191.773438 163.703125 201.363281 171.464844 C 206.289062 175.449219 210.878906 179.210938 214.523438 183.054688 C 203.953125 168.414062 186.582031 160.070312 176.785156 146.183594 C 172.621094 140.277344 170.097656 133.671875 170.351562 126.34375 " fill-opacity="1" fill-rule="evenodd"/><g fill="#025f8e" fill-opacity="1"><g transform="translate(67.601525, 261.283548)"><g><path d="M 16.25 -2.109375 C 16.425781 -1.984375 16.566406 -1.828125 16.671875 -1.640625 C 16.785156 -1.460938 16.84375 -1.273438 16.84375 -1.078125 C 16.84375 -0.710938 16.722656 -0.441406 16.484375 -0.265625 C 16.242188 -0.0859375 15.957031 0 15.625 0 C 15.289062 0 15.007812 -0.0703125 14.78125 -0.21875 C 14.25 -0.507812 13.816406 -0.988281 13.484375 -1.65625 C 13.148438 -2.332031 12.984375 -3.320312 12.984375 -4.625 C 12.984375 -5.5 12.71875 -6.144531 12.1875 -6.5625 C 11.664062 -6.988281 10.984375 -7.203125 10.140625 -7.203125 L 4.796875 -7.203125 L 4.796875 -1.265625 C 4.796875 -0.898438 4.691406 -0.597656 4.484375 -0.359375 C 4.273438 -0.117188 4.003906 0 3.671875 0 C 3.265625 0 2.914062 -0.117188 2.625 -0.359375 C 2.332031 -0.609375 2.1875 -0.910156 2.1875 -1.265625 L 2.1875 -17.203125 C 2.1875 -17.554688 2.304688 -17.851562 2.546875 -18.09375 C 2.796875 -18.34375 3.097656 -18.46875 3.453125 -18.46875 L 10.875 -18.46875 C 11.820312 -18.46875 12.691406 -18.234375 13.484375 -17.765625 C 14.273438 -17.304688 14.90625 -16.664062 15.375 -15.84375 C 15.851562 -15.03125 16.09375 -14.113281 16.09375 -13.09375 C 16.09375 -12.101562 15.828125 -11.179688 15.296875 -10.328125 C 14.773438 -9.472656 14.101562 -8.835938 13.28125 -8.421875 C 13.925781 -8.085938 14.4375 -7.617188 14.8125 -7.015625 C 15.195312 -6.421875 15.40625 -5.726562 15.4375 -4.9375 C 15.507812 -3.9375 15.585938 -3.253906 15.671875 -2.890625 C 15.765625 -2.523438 15.957031 -2.265625 16.25 -2.109375 Z M 10.8125 -9.390625 C 11.257812 -9.429688 11.679688 -9.609375 12.078125 -9.921875 C 12.472656 -10.234375 12.789062 -10.65625 13.03125 -11.1875 C 13.28125 -11.726562 13.40625 -12.335938 13.40625 -13.015625 C 13.40625 -13.859375 13.144531 -14.570312 12.625 -15.15625 C 12.101562 -15.75 11.472656 -16.046875 10.734375 -16.046875 L 4.796875 -16.046875 L 4.796875 -9.390625 Z M 10.8125 -9.390625 "/></g></g></g><g fill="#025f8e" fill-opacity="1"><g transform="translate(88.001895, 261.283548)"><g><path d="M 18.96875 -9.234375 C 18.96875 -7.460938 18.582031 -5.851562 17.8125 -4.40625 C 17.050781 -2.96875 15.992188 -1.828125 14.640625 -0.984375 C 13.285156 -0.148438 11.757812 0.265625 10.0625 0.265625 C 8.351562 0.265625 6.820312 -0.148438 5.46875 -0.984375 C 4.113281 -1.828125 3.050781 -2.96875 2.28125 -4.40625 C 1.519531 -5.851562 1.140625 -7.460938 1.140625 -9.234375 C 1.140625 -11.015625 1.519531 -12.625 2.28125 -14.0625 C 3.050781 -15.507812 4.113281 -16.648438 5.46875 -17.484375 C 6.820312 -18.316406 8.351562 -18.734375 10.0625 -18.734375 C 11.757812 -18.734375 13.285156 -18.316406 14.640625 -17.484375 C 15.992188 -16.648438 17.050781 -15.507812 17.8125 -14.0625 C 18.582031 -12.625 18.96875 -11.015625 18.96875 -9.234375 Z M 16.25 -9.234375 C 16.25 -10.554688 15.984375 -11.75 15.453125 -12.8125 C 14.929688 -13.875 14.195312 -14.707031 13.25 -15.3125 C 12.3125 -15.925781 11.25 -16.234375 10.0625 -16.234375 C 8.863281 -16.234375 7.789062 -15.929688 6.84375 -15.328125 C 5.90625 -14.734375 5.171875 -13.90625 4.640625 -12.84375 C 4.117188 -11.78125 3.859375 -10.578125 3.859375 -9.234375 C 3.859375 -7.910156 4.117188 -6.71875 4.640625 -5.65625 C 5.171875 -4.59375 5.90625 -3.757812 6.84375 -3.15625 C 7.789062 -2.550781 8.863281 -2.25 10.0625 -2.25 C 11.25 -2.25 12.3125 -2.550781 13.25 -3.15625 C 14.195312 -3.757812 14.929688 -4.59375 15.453125 -5.65625 C 15.984375 -6.71875 16.25 -7.910156 16.25 -9.234375 Z M 16.25 -9.234375 "/></g></g></g><g fill="#025f8e" fill-opacity="1"><g transform="translate(110.566297, 261.283548)"><g/></g></g><g fill="#025f8e" fill-opacity="1"><g transform="translate(120.331251, 261.283548)"><g><path d="M 7.78125 0.265625 C 6.5 0.265625 5.363281 0.0859375 4.375 -0.265625 C 3.394531 -0.628906 2.457031 -1.21875 1.5625 -2.03125 C 1.1875 -2.34375 1 -2.703125 1 -3.109375 C 1 -3.429688 1.117188 -3.71875 1.359375 -3.96875 C 1.609375 -4.226562 1.90625 -4.359375 2.25 -4.359375 C 2.539062 -4.359375 2.796875 -4.257812 3.015625 -4.0625 C 3.710938 -3.414062 4.4375 -2.9375 5.1875 -2.625 C 5.9375 -2.3125 6.785156 -2.15625 7.734375 -2.15625 C 8.835938 -2.15625 9.769531 -2.410156 10.53125 -2.921875 C 11.300781 -3.429688 11.6875 -4.078125 11.6875 -4.859375 C 11.675781 -5.773438 11.296875 -6.484375 10.546875 -6.984375 C 9.796875 -7.484375 8.65625 -7.898438 7.125 -8.234375 C 5.3125 -8.597656 3.914062 -9.203125 2.9375 -10.046875 C 1.96875 -10.898438 1.484375 -12.070312 1.484375 -13.5625 C 1.484375 -14.601562 1.753906 -15.515625 2.296875 -16.296875 C 2.835938 -17.078125 3.59375 -17.675781 4.5625 -18.09375 C 5.53125 -18.519531 6.625 -18.734375 7.84375 -18.734375 C 8.925781 -18.734375 9.953125 -18.554688 10.921875 -18.203125 C 11.890625 -17.859375 12.675781 -17.394531 13.28125 -16.8125 C 13.675781 -16.457031 13.875 -16.078125 13.875 -15.671875 C 13.875 -15.359375 13.753906 -15.078125 13.515625 -14.828125 C 13.285156 -14.585938 13.003906 -14.46875 12.671875 -14.46875 C 12.421875 -14.46875 12.21875 -14.535156 12.0625 -14.671875 C 11.601562 -15.128906 10.96875 -15.515625 10.15625 -15.828125 C 9.351562 -16.148438 8.582031 -16.3125 7.84375 -16.3125 C 6.65625 -16.3125 5.710938 -16.066406 5.015625 -15.578125 C 4.328125 -15.097656 3.984375 -14.460938 3.984375 -13.671875 C 3.984375 -12.804688 4.328125 -12.144531 5.015625 -11.6875 C 5.710938 -11.226562 6.75 -10.84375 8.125 -10.53125 C 9.5 -10.226562 10.617188 -9.875 11.484375 -9.46875 C 12.359375 -9.070312 13.03125 -8.507812 13.5 -7.78125 C 13.976562 -7.0625 14.21875 -6.125 14.21875 -4.96875 C 14.21875 -3.945312 13.929688 -3.039062 13.359375 -2.25 C 12.796875 -1.457031 12.019531 -0.835938 11.03125 -0.390625 C 10.039062 0.046875 8.957031 0.265625 7.78125 0.265625 Z M 7.78125 0.265625 "/></g></g></g><g fill="#025f8e" fill-opacity="1"><g transform="translate(138.145334, 261.283548)"><g><path d="M 12.640625 -2.421875 C 13.003906 -2.421875 13.304688 -2.296875 13.546875 -2.046875 C 13.785156 -1.804688 13.90625 -1.519531 13.90625 -1.1875 C 13.90625 -0.832031 13.785156 -0.546875 13.546875 -0.328125 C 13.304688 -0.109375 13.003906 0 12.640625 0 L 3.453125 0 C 3.097656 0 2.796875 -0.117188 2.546875 -0.359375 C 2.304688 -0.609375 2.1875 -0.910156 2.1875 -1.265625 L 2.1875 -17.203125 C 2.1875 -17.554688 2.304688 -17.851562 2.546875 -18.09375 C 2.796875 -18.34375 3.097656 -18.46875 3.453125 -18.46875 L 12.640625 -18.46875 C 13.003906 -18.46875 13.304688 -18.351562 13.546875 -18.125 C 13.785156 -17.894531 13.90625 -17.597656 13.90625 -17.234375 C 13.90625 -16.878906 13.785156 -16.59375 13.546875 -16.375 C 13.304688 -16.15625 13.003906 -16.046875 12.640625 -16.046875 L 4.796875 -16.046875 L 4.796875 -10.65625 L 11.453125 -10.65625 C 11.816406 -10.65625 12.117188 -10.539062 12.359375 -10.3125 C 12.597656 -10.082031 12.71875 -9.796875 12.71875 -9.453125 C 12.71875 -9.078125 12.597656 -8.785156 12.359375 -8.578125 C 12.117188 -8.367188 11.816406 -8.265625 11.453125 -8.265625 L 4.796875 -8.265625 L 4.796875 -2.421875 Z M 12.640625 -2.421875 "/></g></g></g><g fill="#025f8e" fill-opacity="1"><g transform="translate(155.642737, 261.283548)"><g><path d="M 16.25 -2.109375 C 16.425781 -1.984375 16.566406 -1.828125 16.671875 -1.640625 C 16.785156 -1.460938 16.84375 -1.273438 16.84375 -1.078125 C 16.84375 -0.710938 16.722656 -0.441406 16.484375 -0.265625 C 16.242188 -0.0859375 15.957031 0 15.625 0 C 15.289062 0 15.007812 -0.0703125 14.78125 -0.21875 C 14.25 -0.507812 13.816406 -0.988281 13.484375 -1.65625 C 13.148438 -2.332031 12.984375 -3.320312 12.984375 -4.625 C 12.984375 -5.5 12.71875 -6.144531 12.1875 -6.5625 C 11.664062 -6.988281 10.984375 -7.203125 10.140625 -7.203125 L 4.796875 -7.203125 L 4.796875 -1.265625 C 4.796875 -0.898438 4.691406 -0.597656 4.484375 -0.359375 C 4.273438 -0.117188 4.003906 0 3.671875 0 C 3.265625 0 2.914062 -0.117188 2.625 -0.359375 C 2.332031 -0.609375 2.1875 -0.910156 2.1875 -1.265625 L 2.1875 -17.203125 C 2.1875 -17.554688 2.304688 -17.851562 2.546875 -18.09375 C 2.796875 -18.34375 3.097656 -18.46875 3.453125 -18.46875 L 10.875 -18.46875 C 11.820312 -18.46875 12.691406 -18.234375 13.484375 -17.765625 C 14.273438 -17.304688 14.90625 -16.664062 15.375 -15.84375 C 15.851562 -15.03125 16.09375 -14.113281 16.09375 -13.09375 C 16.09375 -12.101562 15.828125 -11.179688 15.296875 -10.328125 C 14.773438 -9.472656 14.101562 -8.835938 13.28125 -8.421875 C 13.925781 -8.085938 14.4375 -7.617188 14.8125 -7.015625 C 15.195312 -6.421875 15.40625 -5.726562 15.4375 -4.9375 C 15.507812 -3.9375 15.585938 -3.253906 15.671875 -2.890625 C 15.765625 -2.523438 15.957031 -2.265625 16.25 -2.109375 Z M 10.8125 -9.390625 C 11.257812 -9.429688 11.679688 -9.609375 12.078125 -9.921875 C 12.472656 -10.234375 12.789062 -10.65625 13.03125 -11.1875 C 13.28125 -11.726562 13.40625 -12.335938 13.40625 -13.015625 C 13.40625 -13.859375 13.144531 -14.570312 12.625 -15.15625 C 12.101562 -15.75 11.472656 -16.046875 10.734375 -16.046875 L 4.796875 -16.046875 L 4.796875 -9.390625 Z M 10.8125 -9.390625 "/></g></g></g><g fill="#025f8e" fill-opacity="1"><g transform="translate(176.043111, 261.283548)"><g><path d="M 15.625 -18.5 C 15.976562 -18.5 16.28125 -18.382812 16.53125 -18.15625 C 16.789062 -17.925781 16.921875 -17.644531 16.921875 -17.3125 C 16.921875 -17.132812 16.875 -16.941406 16.78125 -16.734375 L 10.0625 -0.8125 C 9.9375 -0.550781 9.757812 -0.347656 9.53125 -0.203125 C 9.300781 -0.0664062 9.0625 0 8.8125 0 C 8.582031 -0.0195312 8.363281 -0.09375 8.15625 -0.21875 C 7.957031 -0.351562 7.796875 -0.546875 7.671875 -0.796875 L 0.953125 -16.734375 C 0.878906 -16.867188 0.84375 -17.050781 0.84375 -17.28125 C 0.84375 -17.65625 0.972656 -17.957031 1.234375 -18.1875 C 1.503906 -18.414062 1.796875 -18.53125 2.109375 -18.53125 C 2.640625 -18.53125 3.023438 -18.25 3.265625 -17.6875 L 9.03125 -4.09375 L 14.46875 -17.703125 C 14.582031 -17.953125 14.738281 -18.144531 14.9375 -18.28125 C 15.144531 -18.425781 15.375 -18.5 15.625 -18.5 Z M 15.625 -18.5 "/></g></g></g><g fill="#025f8e" fill-opacity="1"><g transform="translate(196.232364, 261.283548)"><g><path d="M 4.796875 -1.296875 C 4.796875 -0.921875 4.664062 -0.609375 4.40625 -0.359375 C 4.144531 -0.117188 3.835938 0 3.484375 0 C 3.097656 0 2.785156 -0.117188 2.546875 -0.359375 C 2.304688 -0.609375 2.1875 -0.921875 2.1875 -1.296875 L 2.1875 -17.203125 C 2.1875 -17.554688 2.304688 -17.851562 2.546875 -18.09375 C 2.796875 -18.34375 3.117188 -18.46875 3.515625 -18.46875 C 3.859375 -18.46875 4.15625 -18.34375 4.40625 -18.09375 C 4.664062 -17.851562 4.796875 -17.554688 4.796875 -17.203125 Z M 4.796875 -1.296875 "/></g></g></g><g fill="#025f8e" fill-opacity="1"><g transform="translate(205.680629, 261.283548)"><g><path d="M 15.359375 -17.390625 C 15.785156 -17.160156 16 -16.804688 16 -16.328125 C 16 -16.015625 15.890625 -15.726562 15.671875 -15.46875 C 15.460938 -15.1875 15.175781 -15.046875 14.8125 -15.046875 C 14.5625 -15.046875 14.320312 -15.109375 14.09375 -15.234375 C 13 -15.847656 11.820312 -16.15625 10.5625 -16.15625 C 9.238281 -16.15625 8.070312 -15.863281 7.0625 -15.28125 C 6.050781 -14.695312 5.265625 -13.878906 4.703125 -12.828125 C 4.140625 -11.785156 3.859375 -10.585938 3.859375 -9.234375 C 3.859375 -7.773438 4.144531 -6.515625 4.71875 -5.453125 C 5.300781 -4.398438 6.101562 -3.597656 7.125 -3.046875 C 8.144531 -2.492188 9.289062 -2.21875 10.5625 -2.21875 C 11.863281 -2.21875 13.039062 -2.535156 14.09375 -3.171875 C 14.300781 -3.273438 14.53125 -3.328125 14.78125 -3.328125 C 15.164062 -3.328125 15.472656 -3.175781 15.703125 -2.875 C 15.910156 -2.613281 16.015625 -2.332031 16.015625 -2.03125 C 16.015625 -1.820312 15.957031 -1.625 15.84375 -1.4375 C 15.726562 -1.25 15.578125 -1.101562 15.390625 -1 C 14.703125 -0.613281 13.929688 -0.304688 13.078125 -0.078125 C 12.222656 0.148438 11.382812 0.265625 10.5625 0.265625 C 8.851562 0.265625 7.28125 -0.109375 5.84375 -0.859375 C 4.40625 -1.617188 3.257812 -2.71875 2.40625 -4.15625 C 1.5625 -5.601562 1.140625 -7.296875 1.140625 -9.234375 C 1.140625 -11.015625 1.546875 -12.617188 2.359375 -14.046875 C 3.179688 -15.484375 4.304688 -16.609375 5.734375 -17.421875 C 7.171875 -18.242188 8.78125 -18.65625 10.5625 -18.65625 C 12.257812 -18.65625 13.859375 -18.234375 15.359375 -17.390625 Z M 15.359375 -17.390625 "/></g></g></g><g fill="#025f8e" fill-opacity="1"><g transform="translate(224.972597, 261.283548)"><g><path d="M 12.640625 -2.421875 C 13.003906 -2.421875 13.304688 -2.296875 13.546875 -2.046875 C 13.785156 -1.804688 13.90625 -1.519531 13.90625 -1.1875 C 13.90625 -0.832031 13.785156 -0.546875 13.546875 -0.328125 C 13.304688 -0.109375 13.003906 0 12.640625 0 L 3.453125 0 C 3.097656 0 2.796875 -0.117188 2.546875 -0.359375 C 2.304688 -0.609375 2.1875 -0.910156 2.1875 -1.265625 L 2.1875 -17.203125 C 2.1875 -17.554688 2.304688 -17.851562 2.546875 -18.09375 C 2.796875 -18.34375 3.097656 -18.46875 3.453125 -18.46875 L 12.640625 -18.46875 C 13.003906 -18.46875 13.304688 -18.351562 13.546875 -18.125 C 13.785156 -17.894531 13.90625 -17.597656 13.90625 -17.234375 C 13.90625 -16.878906 13.785156 -16.59375 13.546875 -16.375 C 13.304688 -16.15625 13.003906 -16.046875 12.640625 -16.046875 L 4.796875 -16.046875 L 4.796875 -10.65625 L 11.453125 -10.65625 C 11.816406 -10.65625 12.117188 -10.539062 12.359375 -10.3125 C 12.597656 -10.082031 12.71875 -9.796875 12.71875 -9.453125 C 12.71875 -9.078125 12.597656 -8.785156 12.359375 -8.578125 C 12.117188 -8.367188 11.816406 -8.265625 11.453125 -8.265625 L 4.796875 -8.265625 L 4.796875 -2.421875 Z M 12.640625 -2.421875 "/></g></g></g><g fill="#025f8e" fill-opacity="1"><g transform="translate(242.470006, 261.283548)"><g/></g></g><g fill="#025f8e" fill-opacity="1"><g transform="translate(252.234962, 261.283548)"><g><path d="M 9.578125 -18.46875 C 10.515625 -18.46875 11.378906 -18.21875 12.171875 -17.71875 C 12.960938 -17.21875 13.585938 -16.535156 14.046875 -15.671875 C 14.515625 -14.816406 14.75 -13.867188 14.75 -12.828125 C 14.75 -11.785156 14.515625 -10.820312 14.046875 -9.9375 C 13.585938 -9.0625 12.960938 -8.367188 12.171875 -7.859375 C 11.378906 -7.347656 10.515625 -7.09375 9.578125 -7.09375 L 4.625 -7.09375 L 4.625 -1.265625 C 4.625 -0.910156 4.507812 -0.609375 4.28125 -0.359375 C 4.050781 -0.117188 3.757812 0 3.40625 0 C 3.03125 0 2.734375 -0.117188 2.515625 -0.359375 C 2.296875 -0.597656 2.1875 -0.898438 2.1875 -1.265625 L 2.1875 -17.203125 C 2.1875 -17.554688 2.304688 -17.851562 2.546875 -18.09375 C 2.796875 -18.34375 3.097656 -18.46875 3.453125 -18.46875 Z M 9.578125 -9.5 C 10.054688 -9.5 10.492188 -9.648438 10.890625 -9.953125 C 11.296875 -10.265625 11.617188 -10.675781 11.859375 -11.1875 C 12.097656 -11.695312 12.21875 -12.242188 12.21875 -12.828125 C 12.21875 -13.722656 11.957031 -14.484375 11.4375 -15.109375 C 10.914062 -15.734375 10.296875 -16.046875 9.578125 -16.046875 L 4.625 -16.046875 L 4.625 -9.5 Z M 9.578125 -9.5 "/></g></g></g><g fill="#025f8e" fill-opacity="1"><g transform="translate(270.524074, 261.283548)"><g><path d="M 18.96875 -9.234375 C 18.96875 -7.460938 18.582031 -5.851562 17.8125 -4.40625 C 17.050781 -2.96875 15.992188 -1.828125 14.640625 -0.984375 C 13.285156 -0.148438 11.757812 0.265625 10.0625 0.265625 C 8.351562 0.265625 6.820312 -0.148438 5.46875 -0.984375 C 4.113281 -1.828125 3.050781 -2.96875 2.28125 -4.40625 C 1.519531 -5.851562 1.140625 -7.460938 1.140625 -9.234375 C 1.140625 -11.015625 1.519531 -12.625 2.28125 -14.0625 C 3.050781 -15.507812 4.113281 -16.648438 5.46875 -17.484375 C 6.820312 -18.316406 8.351562 -18.734375 10.0625 -18.734375 C 11.757812 -18.734375 13.285156 -18.316406 14.640625 -17.484375 C 15.992188 -16.648438 17.050781 -15.507812 17.8125 -14.0625 C 18.582031 -12.625 18.96875 -11.015625 18.96875 -9.234375 Z M 16.25 -9.234375 C 16.25 -10.554688 15.984375 -11.75 15.453125 -12.8125 C 14.929688 -13.875 14.195312 -14.707031 13.25 -15.3125 C 12.3125 -15.925781 11.25 -16.234375 10.0625 -16.234375 C 8.863281 -16.234375 7.789062 -15.929688 6.84375 -15.328125 C 5.90625 -14.734375 5.171875 -13.90625 4.640625 -12.84375 C 4.117188 -11.78125 3.859375 -10.578125 3.859375 -9.234375 C 3.859375 -7.910156 4.117188 -6.71875 4.640625 -5.65625 C 5.171875 -4.59375 5.90625 -3.757812 6.84375 -3.15625 C 7.789062 -2.550781 8.863281 -2.25 10.0625 -2.25 C 11.25 -2.25 12.3125 -2.550781 13.25 -3.15625 C 14.195312 -3.757812 14.929688 -4.59375 15.453125 -5.65625 C 15.984375 -6.71875 16.25 -7.910156 16.25 -9.234375 Z M 16.25 -9.234375 "/></g></g></g><g fill="#025f8e" fill-opacity="1"><g transform="translate(293.088479, 261.283548)"><g><path d="M 4.796875 -1.296875 C 4.796875 -0.921875 4.664062 -0.609375 4.40625 -0.359375 C 4.144531 -0.117188 3.835938 0 3.484375 0 C 3.097656 0 2.785156 -0.117188 2.546875 -0.359375 C 2.304688 -0.609375 2.1875 -0.921875 2.1875 -1.296875 L 2.1875 -17.203125 C 2.1875 -17.554688 2.304688 -17.851562 2.546875 -18.09375 C 2.796875 -18.34375 3.117188 -18.46875 3.515625 -18.46875 C 3.859375 -18.46875 4.15625 -18.34375 4.40625 -18.09375 C 4.664062 -17.851562 4.796875 -17.554688 4.796875 -17.203125 Z M 4.796875 -1.296875 "/></g></g></g><g fill="#025f8e" fill-opacity="1"><g transform="translate(302.536744, 261.283548)"><g><path d="M 16 -18.46875 C 16.332031 -18.46875 16.601562 -18.359375 16.8125 -18.140625 C 17.019531 -17.921875 17.125 -17.644531 17.125 -17.3125 L 17.125 -1.296875 C 17.125 -0.921875 17.003906 -0.609375 16.765625 -0.359375 C 16.535156 -0.117188 16.234375 0 15.859375 0 C 15.671875 0 15.484375 -0.03125 15.296875 -0.09375 C 15.109375 -0.15625 14.960938 -0.25 14.859375 -0.375 L 4.484375 -13.875 L 4.484375 -1.15625 C 4.484375 -0.820312 4.375 -0.546875 4.15625 -0.328125 C 3.9375 -0.109375 3.660156 0 3.328125 0 C 2.992188 0 2.71875 -0.109375 2.5 -0.328125 C 2.289062 -0.546875 2.1875 -0.820312 2.1875 -1.15625 L 2.1875 -17.203125 C 2.1875 -17.578125 2.304688 -17.878906 2.546875 -18.109375 C 2.785156 -18.347656 3.082031 -18.46875 3.4375 -18.46875 C 3.644531 -18.46875 3.84375 -18.425781 4.03125 -18.34375 C 4.226562 -18.269531 4.378906 -18.164062 4.484375 -18.03125 L 14.828125 -4.484375 L 14.828125 -17.3125 C 14.828125 -17.644531 14.9375 -17.921875 15.15625 -18.140625 C 15.375 -18.359375 15.65625 -18.46875 16 -18.46875 Z M 16 -18.46875 "/></g></g></g><g fill="#025f8e" fill-opacity="1"><g transform="translate(324.309424, 261.283548)"><g><path d="M 14.171875 -18.46875 C 14.535156 -18.46875 14.835938 -18.359375 15.078125 -18.140625 C 15.316406 -17.921875 15.4375 -17.628906 15.4375 -17.265625 C 15.4375 -16.890625 15.316406 -16.597656 15.078125 -16.390625 C 14.835938 -16.179688 14.535156 -16.078125 14.171875 -16.078125 L 9.46875 -16.078125 L 9.46875 -1.265625 C 9.46875 -0.910156 9.335938 -0.609375 9.078125 -0.359375 C 8.828125 -0.117188 8.507812 0 8.125 0 C 7.738281 0 7.414062 -0.117188 7.15625 -0.359375 C 6.90625 -0.609375 6.78125 -0.910156 6.78125 -1.265625 L 6.78125 -16.078125 L 2.109375 -16.078125 C 1.742188 -16.078125 1.441406 -16.1875 1.203125 -16.40625 C 0.960938 -16.625 0.84375 -16.914062 0.84375 -17.28125 C 0.84375 -17.632812 0.960938 -17.921875 1.203125 -18.140625 C 1.441406 -18.359375 1.742188 -18.46875 2.109375 -18.46875 Z M 14.171875 -18.46875 "/></g></g></g><g fill="#00adef" fill-opacity="1"><g transform="translate(94.092983, 277.570002)"><g/></g></g><g fill="#00adef" fill-opacity="1"><g transform="translate(99.811733, 277.570002)"><g><path d="M 2.472656 -5.808594 L 2.445312 -7.003906 L 1.253906 -7.003906 L 1.253906 0 L 2.488281 0 L 2.488281 -3.742188 C 2.488281 -5.316406 3.308594 -5.921875 4.675781 -5.921875 L 4.675781 -7.082031 C 3.691406 -7.070312 2.835938 -6.554688 2.472656 -5.808594 Z M 2.472656 -5.808594 "/></g></g></g><g fill="#00adef" fill-opacity="1"><g transform="translate(106.597151, 277.570002)"><g><path d="M 7.382812 -3.640625 C 7.382812 -5.984375 6.023438 -7.148438 4.140625 -7.148438 C 2.167969 -7.148438 0.691406 -5.792969 0.691406 -3.507812 C 0.691406 -1.210938 2.136719 0.140625 4.175781 0.140625 C 5.566406 0.140625 6.726562 -0.640625 7.234375 -1.917969 L 6.121094 -2.152344 C 5.75 -1.367188 5.023438 -0.890625 4.160156 -0.890625 C 2.957031 -0.890625 1.929688 -1.683594 1.894531 -3.308594 L 7.367188 -3.308594 Z M 4.140625 -6.191406 C 5.238281 -6.191406 6.042969 -5.558594 6.144531 -4.253906 L 1.945312 -4.253906 C 2.152344 -5.558594 3.023438 -6.191406 4.140625 -6.191406 Z M 4.140625 -6.191406 "/></g></g></g><g fill="#00adef" fill-opacity="1"><g transform="translate(116.581226, 277.570002)"><g><path d="M 4.953125 -7.140625 C 3.855469 -7.140625 2.914062 -6.554688 2.472656 -5.644531 L 2.445312 -7.003906 L 1.253906 -7.003906 L 1.253906 3.589844 L 2.488281 3.589844 L 2.488281 -1.324219 C 2.9375 -0.425781 3.871094 0.148438 4.953125 0.148438 C 6.75 0.148438 8.222656 -1.253906 8.222656 -3.5 C 8.222656 -5.738281 6.75 -7.140625 4.953125 -7.140625 Z M 4.710938 -0.917969 C 3.414062 -0.917969 2.394531 -2.023438 2.394531 -3.5 C 2.394531 -4.96875 3.414062 -6.070312 4.710938 -6.070312 C 5.949219 -6.070312 6.992188 -5.089844 6.992188 -3.5 C 6.992188 -1.902344 5.949219 -0.917969 4.710938 -0.917969 Z M 4.710938 -0.917969 "/></g></g></g><g fill="#00adef" fill-opacity="1"><g transform="translate(127.420173, 277.570002)"><g><path d="M 2.871094 0.136719 C 3.726562 0.136719 4.597656 -0.171875 5.167969 -0.949219 L 5.222656 -0.949219 C 5.359375 -0.292969 5.835938 0 6.550781 0 L 7.160156 0 L 7.160156 -0.890625 L 7.046875 -0.890625 C 6.554688 -0.890625 6.335938 -1.054688 6.335938 -1.808594 L 6.335938 -4.703125 C 6.335938 -6.542969 5.050781 -7.125 3.648438 -7.125 C 2.09375 -7.125 1.074219 -6.476562 0.863281 -5.125 L 1.972656 -4.890625 C 2.089844 -5.824219 2.773438 -6.191406 3.589844 -6.191406 C 4.398438 -6.191406 5.136719 -5.835938 5.136719 -4.816406 C 5.136719 -4.460938 4.945312 -4.246094 4.519531 -4.167969 L 3.386719 -3.984375 C 1.859375 -3.726562 0.734375 -3.234375 0.734375 -1.78125 C 0.734375 -0.441406 1.710938 0.136719 2.871094 0.136719 Z M 3.15625 -0.863281 C 2.480469 -0.863281 1.9375 -1.15625 1.9375 -1.882812 C 1.9375 -2.574219 2.445312 -2.878906 3.378906 -3.035156 L 5.230469 -3.390625 C 5.230469 -1.804688 4.382812 -0.863281 3.15625 -0.863281 Z M 3.15625 -0.863281 "/></g></g></g><g fill="#00adef" fill-opacity="1"><g transform="translate(136.991061, 277.570002)"><g><path d="M 1.882812 -8.652344 C 2.332031 -8.652344 2.707031 -9.027344 2.707031 -9.484375 C 2.707031 -9.941406 2.332031 -10.3125 1.882812 -10.3125 C 1.425781 -10.3125 1.046875 -9.941406 1.046875 -9.484375 C 1.046875 -9.027344 1.425781 -8.652344 1.882812 -8.652344 Z M 1.253906 0 L 2.496094 0 L 2.496094 -7.003906 L 1.253906 -7.003906 Z M 1.253906 0 "/></g></g></g><g fill="#00adef" fill-opacity="1"><g transform="translate(142.665145, 277.570002)"><g><path d="M 2.472656 -5.808594 L 2.445312 -7.003906 L 1.253906 -7.003906 L 1.253906 0 L 2.488281 0 L 2.488281 -3.742188 C 2.488281 -5.316406 3.308594 -5.921875 4.675781 -5.921875 L 4.675781 -7.082031 C 3.691406 -7.070312 2.835938 -6.554688 2.472656 -5.808594 Z M 2.472656 -5.808594 "/></g></g></g><g fill="#00adef" fill-opacity="1"><g transform="translate(149.450564, 277.570002)"><g/></g></g><g fill="#00adef" fill-opacity="1"><g transform="translate(155.167391, 277.570002)"><g><path d="M 2.871094 0.136719 C 3.726562 0.136719 4.597656 -0.171875 5.167969 -0.949219 L 5.222656 -0.949219 C 5.359375 -0.292969 5.835938 0 6.550781 0 L 7.160156 0 L 7.160156 -0.890625 L 7.046875 -0.890625 C 6.554688 -0.890625 6.335938 -1.054688 6.335938 -1.808594 L 6.335938 -4.703125 C 6.335938 -6.542969 5.050781 -7.125 3.648438 -7.125 C 2.09375 -7.125 1.074219 -6.476562 0.863281 -5.125 L 1.972656 -4.890625 C 2.089844 -5.824219 2.773438 -6.191406 3.589844 -6.191406 C 4.398438 -6.191406 5.136719 -5.835938 5.136719 -4.816406 C 5.136719 -4.460938 4.945312 -4.246094 4.519531 -4.167969 L 3.386719 -3.984375 C 1.859375 -3.726562 0.734375 -3.234375 0.734375 -1.78125 C 0.734375 -0.441406 1.710938 0.136719 2.871094 0.136719 Z M 3.15625 -0.863281 C 2.480469 -0.863281 1.9375 -1.15625 1.9375 -1.882812 C 1.9375 -2.574219 2.445312 -2.878906 3.378906 -3.035156 L 5.230469 -3.390625 C 5.230469 -1.804688 4.382812 -0.863281 3.15625 -0.863281 Z M 3.15625 -0.863281 "/></g></g></g><g fill="#00adef" fill-opacity="1"><g transform="translate(164.738279, 277.570002)"><g><path d="M 4.5625 -7.140625 C 3.65625 -7.140625 2.929688 -6.761719 2.488281 -6.105469 L 2.488281 -7.003906 L 1.253906 -7.003906 L 1.253906 0 L 2.488281 0 L 2.488281 -4.191406 C 2.496094 -5.507812 3.265625 -6.101562 4.226562 -6.101562 C 5.046875 -6.101562 5.75 -5.636719 5.75 -4.441406 L 5.75 0 L 6.984375 0 L 6.984375 -4.71875 C 6.984375 -6.292969 6 -7.140625 4.5625 -7.140625 Z M 4.5625 -7.140625 "/></g></g></g><g fill="#00adef" fill-opacity="1"><g transform="translate(174.772217, 277.570002)"><g><path d="M 6.429688 -10.945312 L 6.429688 -5.671875 C 5.980469 -6.570312 5.046875 -7.140625 3.960938 -7.140625 C 2.171875 -7.140625 0.683594 -5.707031 0.683594 -3.5 C 0.683594 -1.28125 2.167969 0.148438 3.960938 0.148438 C 5.058594 0.148438 6 -0.433594 6.441406 -1.359375 L 6.472656 0 L 7.660156 0 L 7.660156 -10.945312 Z M 4.21875 -0.917969 C 2.941406 -0.917969 1.917969 -1.9375 1.917969 -3.5 C 1.917969 -5.058594 2.941406 -6.078125 4.21875 -6.078125 C 5.496094 -6.078125 6.507812 -4.972656 6.507812 -3.5 C 6.507812 -2.023438 5.5 -0.917969 4.21875 -0.917969 Z M 4.21875 -0.917969 "/></g></g></g><g fill="#00adef" fill-opacity="1"><g transform="translate(185.611168, 277.570002)"><g/></g></g><g fill="#00adef" fill-opacity="1"><g transform="translate(191.327995, 277.570002)"><g><path d="M 8.417969 -7.140625 C 7.527344 -7.140625 6.796875 -6.742188 6.378906 -5.992188 C 6.027344 -6.75 5.296875 -7.140625 4.402344 -7.140625 C 3.570312 -7.140625 2.894531 -6.761719 2.488281 -6.101562 L 2.488281 -7.003906 L 1.253906 -7.003906 L 1.253906 0 L 2.488281 0 L 2.488281 -4.289062 C 2.488281 -5.558594 3.144531 -6.101562 3.960938 -6.101562 C 4.726562 -6.101562 5.34375 -5.609375 5.34375 -4.503906 L 5.34375 0 L 6.597656 0 L 6.597656 -4.332031 C 6.597656 -5.558594 7.234375 -6.101562 8.074219 -6.101562 C 8.808594 -6.101562 9.433594 -5.628906 9.433594 -4.554688 L 9.433594 0 L 10.667969 0 L 10.667969 -4.875 C 10.667969 -6.351562 9.726562 -7.140625 8.417969 -7.140625 Z M 8.417969 -7.140625 "/></g></g></g><g fill="#00adef" fill-opacity="1"><g transform="translate(205.052132, 277.570002)"><g><path d="M 2.871094 0.136719 C 3.726562 0.136719 4.597656 -0.171875 5.167969 -0.949219 L 5.222656 -0.949219 C 5.359375 -0.292969 5.835938 0 6.550781 0 L 7.160156 0 L 7.160156 -0.890625 L 7.046875 -0.890625 C 6.554688 -0.890625 6.335938 -1.054688 6.335938 -1.808594 L 6.335938 -4.703125 C 6.335938 -6.542969 5.050781 -7.125 3.648438 -7.125 C 2.09375 -7.125 1.074219 -6.476562 0.863281 -5.125 L 1.972656 -4.890625 C 2.089844 -5.824219 2.773438 -6.191406 3.589844 -6.191406 C 4.398438 -6.191406 5.136719 -5.835938 5.136719 -4.816406 C 5.136719 -4.460938 4.945312 -4.246094 4.519531 -4.167969 L 3.386719 -3.984375 C 1.859375 -3.726562 0.734375 -3.234375 0.734375 -1.78125 C 0.734375 -0.441406 1.710938 0.136719 2.871094 0.136719 Z M 3.15625 -0.863281 C 2.480469 -0.863281 1.9375 -1.15625 1.9375 -1.882812 C 1.9375 -2.574219 2.445312 -2.878906 3.378906 -3.035156 L 5.230469 -3.390625 C 5.230469 -1.804688 4.382812 -0.863281 3.15625 -0.863281 Z M 3.15625 -0.863281 "/></g></g></g><g fill="#00adef" fill-opacity="1"><g transform="translate(214.62302, 277.570002)"><g><path d="M 1.882812 -8.652344 C 2.332031 -8.652344 2.707031 -9.027344 2.707031 -9.484375 C 2.707031 -9.941406 2.332031 -10.3125 1.882812 -10.3125 C 1.425781 -10.3125 1.046875 -9.941406 1.046875 -9.484375 C 1.046875 -9.027344 1.425781 -8.652344 1.882812 -8.652344 Z M 1.253906 0 L 2.496094 0 L 2.496094 -7.003906 L 1.253906 -7.003906 Z M 1.253906 0 "/></g></g></g><g fill="#00adef" fill-opacity="1"><g transform="translate(220.297103, 277.570002)"><g><path d="M 4.5625 -7.140625 C 3.65625 -7.140625 2.929688 -6.761719 2.488281 -6.105469 L 2.488281 -7.003906 L 1.253906 -7.003906 L 1.253906 0 L 2.488281 0 L 2.488281 -4.191406 C 2.496094 -5.507812 3.265625 -6.101562 4.226562 -6.101562 C 5.046875 -6.101562 5.75 -5.636719 5.75 -4.441406 L 5.75 0 L 6.984375 0 L 6.984375 -4.71875 C 6.984375 -6.292969 6 -7.140625 4.5625 -7.140625 Z M 4.5625 -7.140625 "/></g></g></g><g fill="#00adef" fill-opacity="1"><g transform="translate(230.331042, 277.570002)"><g><path d="M 3.492188 0 L 4.476562 0 L 4.476562 -0.984375 L 3.835938 -0.984375 C 3.269531 -0.984375 2.863281 -1.347656 2.863281 -2.03125 L 2.863281 -6.023438 L 4.476562 -6.023438 L 4.476562 -7.003906 L 2.863281 -7.003906 L 2.863281 -9.34375 L 1.71875 -9.34375 L 1.71875 -8.074219 C 1.71875 -7.304688 1.453125 -7.003906 0.71875 -7.003906 L 0.191406 -7.003906 L 0.191406 -6.023438 L 1.625 -6.023438 L 1.625 -1.902344 C 1.625 -0.691406 2.34375 0 3.492188 0 Z M 3.492188 0 "/></g></g></g><g fill="#00adef" fill-opacity="1"><g transform="translate(237.25894, 277.570002)"><g><path d="M 7.382812 -3.640625 C 7.382812 -5.984375 6.023438 -7.148438 4.140625 -7.148438 C 2.167969 -7.148438 0.691406 -5.792969 0.691406 -3.507812 C 0.691406 -1.210938 2.136719 0.140625 4.175781 0.140625 C 5.566406 0.140625 6.726562 -0.640625 7.234375 -1.917969 L 6.121094 -2.152344 C 5.75 -1.367188 5.023438 -0.890625 4.160156 -0.890625 C 2.957031 -0.890625 1.929688 -1.683594 1.894531 -3.308594 L 7.367188 -3.308594 Z M 4.140625 -6.191406 C 5.238281 -6.191406 6.042969 -5.558594 6.144531 -4.253906 L 1.945312 -4.253906 C 2.152344 -5.558594 3.023438 -6.191406 4.140625 -6.191406 Z M 4.140625 -6.191406 "/></g></g></g><g fill="#00adef" fill-opacity="1"><g transform="translate(247.243017, 277.570002)"><g><path d="M 4.5625 -7.140625 C 3.65625 -7.140625 2.929688 -6.761719 2.488281 -6.105469 L 2.488281 -7.003906 L 1.253906 -7.003906 L 1.253906 0 L 2.488281 0 L 2.488281 -4.191406 C 2.496094 -5.507812 3.265625 -6.101562 4.226562 -6.101562 C 5.046875 -6.101562 5.75 -5.636719 5.75 -4.441406 L 5.75 0 L 6.984375 0 L 6.984375 -4.71875 C 6.984375 -6.292969 6 -7.140625 4.5625 -7.140625 Z M 4.5625 -7.140625 "/></g></g></g><g fill="#00adef" fill-opacity="1"><g transform="translate(257.276955, 277.570002)"><g><path d="M 2.871094 0.136719 C 3.726562 0.136719 4.597656 -0.171875 5.167969 -0.949219 L 5.222656 -0.949219 C 5.359375 -0.292969 5.835938 0 6.550781 0 L 7.160156 0 L 7.160156 -0.890625 L 7.046875 -0.890625 C 6.554688 -0.890625 6.335938 -1.054688 6.335938 -1.808594 L 6.335938 -4.703125 C 6.335938 -6.542969 5.050781 -7.125 3.648438 -7.125 C 2.09375 -7.125 1.074219 -6.476562 0.863281 -5.125 L 1.972656 -4.890625 C 2.089844 -5.824219 2.773438 -6.191406 3.589844 -6.191406 C 4.398438 -6.191406 5.136719 -5.835938 5.136719 -4.816406 C 5.136719 -4.460938 4.945312 -4.246094 4.519531 -4.167969 L 3.386719 -3.984375 C 1.859375 -3.726562 0.734375 -3.234375 0.734375 -1.78125 C 0.734375 -0.441406 1.710938 0.136719 2.871094 0.136719 Z M 3.15625 -0.863281 C 2.480469 -0.863281 1.9375 -1.15625 1.9375 -1.882812 C 1.9375 -2.574219 2.445312 -2.878906 3.378906 -3.035156 L 5.230469 -3.390625 C 5.230469 -1.804688 4.382812 -0.863281 3.15625 -0.863281 Z M 3.15625 -0.863281 "/></g></g></g><g fill="#00adef" fill-opacity="1"><g transform="translate(266.847843, 277.570002)"><g><path d="M 4.5625 -7.140625 C 3.65625 -7.140625 2.929688 -6.761719 2.488281 -6.105469 L 2.488281 -7.003906 L 1.253906 -7.003906 L 1.253906 0 L 2.488281 0 L 2.488281 -4.191406 C 2.496094 -5.507812 3.265625 -6.101562 4.226562 -6.101562 C 5.046875 -6.101562 5.75 -5.636719 5.75 -4.441406 L 5.75 0 L 6.984375 0 L 6.984375 -4.71875 C 6.984375 -6.292969 6 -7.140625 4.5625 -7.140625 Z M 4.5625 -7.140625 "/></g></g></g><g fill="#00adef" fill-opacity="1"><g transform="translate(276.881782, 277.570002)"><g><path d="M 4.160156 0.128906 C 5.6875 0.128906 6.933594 -0.726562 7.367188 -2.1875 L 6.214844 -2.378906 C 5.886719 -1.425781 5.101562 -0.90625 4.15625 -0.90625 C 2.863281 -0.90625 1.894531 -1.925781 1.894531 -3.507812 C 1.894531 -5.089844 2.863281 -6.113281 4.15625 -6.113281 C 5.101562 -6.113281 5.886719 -5.59375 6.214844 -4.640625 L 7.367188 -4.824219 C 6.933594 -6.292969 5.707031 -7.140625 4.160156 -7.140625 C 2.160156 -7.140625 0.664062 -5.699219 0.664062 -3.507812 C 0.664062 -1.320312 2.160156 0.128906 4.160156 0.128906 Z M 4.160156 0.128906 "/></g></g></g><g fill="#00adef" fill-opacity="1"><g transform="translate(286.737628, 277.570002)"><g><path d="M 7.382812 -3.640625 C 7.382812 -5.984375 6.023438 -7.148438 4.140625 -7.148438 C 2.167969 -7.148438 0.691406 -5.792969 0.691406 -3.507812 C 0.691406 -1.210938 2.136719 0.140625 4.175781 0.140625 C 5.566406 0.140625 6.726562 -0.640625 7.234375 -1.917969 L 6.121094 -2.152344 C 5.75 -1.367188 5.023438 -0.890625 4.160156 -0.890625 C 2.957031 -0.890625 1.929688 -1.683594 1.894531 -3.308594 L 7.367188 -3.308594 Z M 4.140625 -6.191406 C 5.238281 -6.191406 6.042969 -5.558594 6.144531 -4.253906 L 1.945312 -4.253906 C 2.152344 -5.558594 3.023438 -6.191406 4.140625 -6.191406 Z M 4.140625 -6.191406 "/></g></g></g></svg>