<?xml version="1.0" standalone="no"?>
<!DOCTYPE svg PUBLIC "-//W3C//DTD SVG 20010904//EN"
 "http://www.w3.org/TR/2001/REC-SVG-20010904/DTD/svg10.dtd">
<svg version="1.0" xmlns="http://www.w3.org/2000/svg"
 width="936.000000pt" height="936.000000pt" viewBox="0 0 936.000000 936.000000"
 preserveAspectRatio="xMidYMid meet">
<metadata>
Created by potrace 1.14, written by Peter Selinger 2001-2017
</metadata>
<g transform="translate(0.000000,936.000000) scale(0.100000,-0.100000)"
fill="#000000" stroke="none">
<path d="M4568 9337 c-7 -7 -56 -46 -108 -87 -52 -41 -97 -77 -100 -80 -3 -3
-27 -23 -55 -45 -27 -22 -55 -44 -61 -50 -6 -5 -33 -28 -60 -50 -27 -22 -69
-58 -94 -80 -24 -22 -62 -56 -84 -75 -52 -46 -299 -292 -356 -355 -74 -80
-210 -252 -210 -264 0 -6 -5 -11 -10 -11 -6 0 -15 -10 -20 -22 -5 -13 -18 -34
-29 -48 -28 -37 -91 -137 -91 -144 0 -4 -10 -23 -23 -44 -37 -59 -103 -219
-131 -313 -57 -199 -71 -397 -40 -562 5 -23 9 -46 10 -52 1 -5 3 -14 4 -20 1
-5 3 -14 4 -20 3 -19 37 -130 46 -152 6 -13 14 -33 19 -45 49 -121 157 -311
231 -408 164 -215 211 -269 400 -459 166 -167 210 -207 415 -383 151 -131 591
-478 604 -478 5 0 11 -4 13 -9 2 -4 35 -32 73 -60 39 -29 84 -63 100 -75 17
-13 55 -42 85 -64 30 -23 62 -47 70 -54 8 -8 60 -47 115 -88 55 -41 109 -82
120 -91 11 -10 79 -63 150 -120 72 -56 133 -107 137 -113 4 -6 8 -8 8 -4 0 3
13 -6 28 -20 15 -15 87 -75 159 -134 147 -121 175 -144 207 -173 12 -11 53
-47 91 -80 116 -99 162 -142 350 -330 203 -201 220 -221 326 -355 40 -52 77
-96 82 -98 4 -2 7 -8 7 -13 0 -9 37 -66 50 -79 25 -23 156 -278 185 -360 23
-65 65 -210 70 -245 2 -16 7 -41 10 -55 3 -14 7 -65 10 -114 3 -49 7 -91 9
-93 2 -3 0 -18 -4 -34 -5 -18 -5 -29 1 -29 6 0 8 -4 4 -9 -3 -5 -7 -33 -10
-63 -17 -193 -74 -400 -166 -603 -12 -27 -23 -52 -24 -55 -1 -7 -43 -86 -78
-150 -67 -121 -176 -292 -189 -298 -5 -2 -8 -8 -8 -12 0 -10 -119 -171 -135
-182 -5 -4 -6 -8 -1 -8 19 0 220 215 420 450 96 113 286 395 358 530 18 36 38
72 43 80 5 8 10 17 10 20 1 3 15 34 31 70 17 36 35 76 39 90 4 14 11 30 15 35
6 8 69 188 76 220 2 6 5 20 8 32 49 196 67 330 68 503 0 100 -8 223 -18 272
-2 13 -6 39 -9 58 -5 37 -8 50 -18 90 -4 14 -9 36 -11 50 -6 32 -39 139 -64
210 -38 108 -122 282 -184 383 -26 43 -48 82 -48 86 0 4 -9 16 -20 26 -11 10
-20 23 -20 30 0 7 -9 20 -20 30 -11 10 -20 22 -20 27 0 9 -161 219 -195 254
-11 11 -36 41 -57 65 -44 54 -90 102 -223 239 -139 143 -259 256 -409 385 -32
28 -68 58 -80 68 -11 10 -34 28 -49 40 -15 12 -38 30 -50 41 -12 10 -47 37
-77 60 -30 22 -61 48 -70 56 -9 8 -32 26 -53 40 -20 14 -37 28 -37 33 0 4 -5
7 -11 7 -6 0 -17 6 -24 13 -21 17 -48 38 -150 112 -49 36 -101 74 -115 85 -14
10 -83 63 -155 116 -124 93 -314 242 -325 254 -3 3 -21 18 -40 34 -199 163
-427 395 -558 570 -29 39 -60 79 -68 89 -8 9 -14 19 -14 22 0 2 -20 36 -45 75
-78 119 -171 331 -201 455 -19 80 -27 115 -30 140 -2 17 -7 46 -10 65 -4 19
-8 69 -10 110 l-4 75 25 -30 c13 -17 24 -33 25 -38 0 -4 20 -35 45 -70 24 -34
64 -89 87 -122 63 -88 198 -257 270 -338 77 -87 284 -296 353 -355 28 -24 64
-56 81 -70 44 -39 104 -87 218 -175 56 -42 109 -84 119 -92 9 -8 19 -15 22
-15 2 0 33 -21 68 -47 36 -27 73 -54 83 -61 11 -7 51 -35 89 -62 106 -75 185
-131 235 -164 25 -16 47 -33 50 -36 3 -4 23 -19 45 -33 53 -35 157 -108 172
-121 6 -6 27 -21 45 -34 121 -83 318 -239 405 -319 19 -18 37 -33 39 -33 21 0
404 -388 515 -520 145 -174 329 -424 329 -448 0 -6 4 -12 9 -14 27 -10 245
-428 305 -583 15 -38 31 -79 36 -90 4 -11 15 -38 24 -60 l16 -40 -5 60 c-3 33
-7 74 -9 90 -2 17 -7 55 -11 85 -4 30 -15 105 -26 165 -11 61 -21 119 -23 130
-17 96 -114 457 -131 485 -3 5 -8 20 -10 32 -4 19 -57 164 -85 233 -71 174
-201 446 -269 565 -18 30 -35 63 -38 73 -3 9 -9 17 -14 17 -5 0 -9 5 -9 11 0
20 -254 412 -301 465 -11 11 -19 23 -19 27 0 4 -7 15 -15 25 -9 9 -61 76 -117
147 -56 72 -104 132 -107 135 -3 3 -18 21 -33 40 -14 19 -40 51 -58 70 -17 19
-46 53 -63 74 -18 21 -45 53 -60 70 -15 17 -47 53 -70 79 -62 72 -55 64 -287
317 -103 112 -221 239 -259 280 -25 26 -66 70 -91 97 -25 27 -88 96 -140 153
-52 57 -105 115 -117 127 -30 31 -259 297 -303 352 -19 24 -40 48 -45 55 -79
89 -279 386 -328 486 -6 14 -14 27 -17 30 -10 9 -130 258 -130 270 0 5 -4 18
-10 28 -22 39 -59 136 -106 279 -27 84 -54 153 -61 153 -6 0 -18 -6 -25 -13z"/>
<path d="M2520 6963 c-30 -37 -62 -74 -70 -82 -8 -9 -26 -32 -40 -51 -13 -19
-27 -37 -31 -40 -11 -9 -155 -223 -184 -275 -176 -313 -242 -587 -210 -865 5
-41 9 -77 10 -80 9 -29 16 -59 19 -75 1 -11 5 -27 8 -35 3 -8 16 -44 28 -80
23 -66 98 -231 110 -240 3 -3 19 -27 35 -55 53 -91 169 -255 187 -263 5 -2 8
-8 8 -14 0 -5 6 -15 13 -22 6 -7 32 -37 57 -67 52 -62 343 -356 411 -414 154
-133 242 -204 350 -285 42 -31 83 -62 90 -69 19 -17 241 -173 313 -220 82 -54
199 -136 230 -163 6 -5 63 -50 126 -101 63 -51 126 -101 139 -112 61 -50 293
-287 347 -355 72 -89 147 -200 197 -291 36 -66 85 -180 92 -212 2 -9 6 -21 9
-25 3 -5 8 -24 11 -43 3 -19 10 -51 15 -72 14 -64 5 -255 -15 -329 -11 -38
-23 -68 -27 -68 -4 0 -8 -6 -8 -14 0 -34 -69 -135 -143 -209 -57 -57 -83 -77
-172 -133 -73 -45 -218 -102 -310 -120 -52 -10 -55 -11 -57 -14 -2 -1 -14 -3
-28 -5 -14 -1 -54 -6 -90 -11 -70 -8 -270 -9 -335 0 -101 13 -132 17 -160 21
-16 2 -41 6 -55 10 -14 3 -38 8 -55 11 -91 16 -218 52 -319 90 -91 34 -240
105 -244 115 -2 5 -9 9 -16 9 -16 0 -150 93 -217 150 -65 55 -128 119 -171
172 -18 22 -38 45 -43 52 -42 45 -170 272 -205 361 -43 107 -60 158 -57 162 4
4 100 -68 128 -96 8 -9 32 -27 52 -41 20 -14 37 -28 37 -32 0 -5 4 -8 10 -8 5
0 44 -26 87 -58 105 -78 198 -138 316 -206 54 -31 100 -56 101 -56 2 0 39 -17
82 -37 43 -20 81 -37 84 -38 3 0 32 -11 65 -24 90 -34 246 -74 340 -87 53 -7
151 -8 162 -1 7 4 14 3 18 -3 4 -6 11 -8 16 -4 5 3 22 8 37 10 140 25 251 102
303 212 55 118 57 253 6 459 -2 7 -6 16 -10 19 -4 4 -7 15 -7 25 0 41 -177
355 -233 414 -7 7 -28 32 -47 56 -40 50 -200 210 -251 251 -60 48 -99 80 -313
258 -116 96 -216 179 -222 185 -12 11 -124 109 -158 138 -183 155 -584 546
-776 756 -52 57 -102 112 -110 121 -8 9 -42 47 -75 85 -33 39 -70 81 -82 95
-24 27 -36 41 -97 114 l-38 46 -17 -22 c-26 -36 -145 -283 -153 -318 -2 -8 -5
-17 -9 -20 -17 -16 -110 -301 -143 -440 -16 -69 -20 -88 -36 -185 -5 -33 -12
-71 -15 -85 -27 -143 -26 -629 1 -772 3 -15 7 -42 9 -60 3 -18 8 -51 12 -73 4
-22 8 -44 8 -50 1 -5 4 -23 8 -40 4 -16 10 -41 13 -55 5 -24 12 -57 19 -90 2
-8 4 -15 5 -15 1 0 3 -7 5 -15 24 -117 136 -435 208 -590 12 -25 21 -47 22
-50 3 -16 71 -149 87 -173 11 -15 21 -33 22 -40 9 -52 360 -587 422 -642 6 -5
17 -19 25 -31 44 -66 365 -399 483 -502 136 -119 441 -342 467 -342 5 0 9 -4
9 -9 0 -5 8 -11 18 -15 9 -3 24 -10 32 -16 150 -101 581 -292 735 -326 6 -1
46 -12 90 -23 44 -12 94 -24 110 -26 17 -3 41 -8 55 -10 58 -12 77 -15 120
-20 25 -3 63 -8 85 -11 22 -3 79 -7 127 -9 47 -1 90 -5 95 -8 5 -3 15 -2 23 3
8 5 22 5 32 -1 10 -5 18 -6 18 -2 0 4 33 8 73 9 72 0 194 10 232 18 11 2 40 7
65 12 25 4 47 8 50 9 7 2 94 19 100 20 3 0 11 4 18 8 6 5 12 6 12 4 0 -14 319
97 406 141 21 11 44 21 49 22 12 3 62 28 125 65 25 14 60 33 78 42 17 9 32 20
32 25 0 4 5 8 11 8 11 0 160 107 171 124 4 6 8 8 8 4 0 -4 15 7 34 25 19 17
56 53 83 78 28 26 81 82 118 125 38 44 72 80 77 82 4 2 8 9 8 15 0 7 10 23 23
37 12 14 28 37 36 53 8 15 18 27 23 27 4 0 8 5 8 11 0 6 8 23 19 37 30 44 95
172 125 247 15 39 31 77 36 85 6 12 35 104 46 145 17 65 44 206 51 265 15 141
6 403 -18 520 -5 25 -11 54 -13 65 -5 33 -37 148 -47 170 -4 11 -19 49 -32 85
-22 60 -94 211 -128 270 -22 38 -151 224 -166 238 -7 8 -26 30 -41 50 -15 21
-31 42 -37 48 -155 171 -283 302 -353 360 -17 14 -51 45 -76 68 -24 22 -52 48
-63 56 -283 234 -558 432 -929 672 -75 49 -140 88 -145 88 -5 0 -9 5 -9 10 0
6 -5 10 -10 10 -6 0 -23 8 -38 19 -15 10 -65 43 -112 72 -72 46 -176 115 -402
267 -21 14 -38 29 -38 34 0 4 -5 8 -11 8 -10 0 -194 133 -209 151 -3 3 -27 23
-55 44 -27 20 -52 40 -55 44 -3 4 -27 25 -55 46 -143 114 -389 360 -508 510
-27 33 -55 69 -64 79 -105 129 -295 480 -317 589 -2 6 -5 19 -8 27 -13 38 -27
88 -32 115 -4 17 -9 41 -12 55 -23 115 -35 304 -24 393 4 30 3 47 -4 46 -6 0
-36 -30 -66 -66z"/>
</g>
</svg>
